<?xml version="1.0" encoding="utf-8"?>
<!-- Generator: Adobe Illustrator 26.5.0, SVG Export Plug-In . SVG Version: 6.00 Build 0)  -->
<svg version="1.1" id="OBJECTS" xmlns="http://www.w3.org/2000/svg" xmlns:xlink="http://www.w3.org/1999/xlink" x="0px" y="0px"
	 viewBox="0 0 68.68 80.81" style="enable-background:new 0 0 68.68 80.81;" xml:space="preserve">
<style type="text/css">
	.st0{fill:#073D40;}
	.st1{fill:#C2170C;}
</style>
<polygon class="st0" points="68.68,80.81 51.14,55.01 60.02,55.01 46.44,35.03 54.37,35.03 34.34,5.56 14.31,35.03 22.25,35.03 
	8.66,55.01 17.54,55.01 0,80.81 "/>
<g>
	<path class="st1" d="M38.89,4.55c0,2.51-2.04,4.54-4.55,4.54c-2.51,0-4.54-2.03-4.54-4.54C29.8,2.04,31.83,0,34.34,0
		C36.85,0,38.89,2.04,38.89,4.55z"/>
	<path class="st1" d="M58.92,35.03c0,2.51-2.04,4.54-4.55,4.54c-2.51,0-4.55-2.04-4.55-4.54c0-2.51,2.04-4.54,4.55-4.54
		C56.88,30.48,58.92,32.52,58.92,35.03z"/>
	<path class="st1" d="M38.43,46.99c0,2.51-2.03,4.54-4.54,4.54c-2.51,0-4.54-2.04-4.54-4.54c0-2.51,2.03-4.55,4.54-4.55
		C36.4,42.44,38.43,44.48,38.43,46.99z"/>
	<path class="st1" d="M25.21,29.36c0,2.51-2.03,4.54-4.54,4.54c-2.51,0-4.54-2.03-4.54-4.54c0-2.51,2.03-4.55,4.54-4.55
		C23.18,24.81,25.21,26.85,25.21,29.36z"/>
	<path class="st1" d="M18.29,59.58c0,2.51-2.03,4.54-4.54,4.54c-2.51,0-4.55-2.03-4.55-4.54c0-2.51,2.04-4.54,4.55-4.54
		C16.25,55.03,18.29,57.07,18.29,59.58z"/>
	<path class="st1" d="M60.46,65.87c0,2.51-2.03,4.55-4.55,4.55c-2.51,0-4.54-2.04-4.54-4.55c0-2.51,2.03-4.54,4.54-4.54
		C58.43,61.33,60.46,63.36,60.46,65.87z"/>
</g>
</svg>
