<?xml version="1.0" encoding="utf-8"?>
<!-- Generator: Adobe Illustrator 26.5.0, SVG Export Plug-In . SVG Version: 6.00 Build 0)  -->
<svg version="1.1" id="Ebene_1" xmlns="http://www.w3.org/2000/svg" xmlns:xlink="http://www.w3.org/1999/xlink" x="0px" y="0px"
	 viewBox="0 0 1000 1000" style="enable-background:new 0 0 1000 1000;" xml:space="preserve">
<style type="text/css">
	.st0{fill:#FBCF6E;}
	.st1{fill:#FFE9BF;}
	.st2{fill:#BA4826;}
	.st3{fill:#E8A459;}
	.st4{fill:#F7CA85;}
	.st5{fill:#7B913A;}
	.st6{fill:#697833;}
	.st7{opacity:0.5;fill:#BA4826;enable-background:new    ;}
	.st8{opacity:0.25;clip-path:url(#SVGID_00000067938962840589429170000015591091100123260060_);}
	.st9{fill:#F07713;}
	.st10{clip-path:url(#SVGID_00000181807613494399238690000016631297183760919688_);fill:#D72027;}
	.st11{clip-path:url(#SVGID_00000171693069083808591750000016168361884236511109_);fill:#EC2024;}
	.st12{clip-path:url(#SVGID_00000110463684748185973170000003779414734751961243_);fill:#EC2024;}
	.st13{clip-path:url(#SVGID_00000103968889962680090230000008506204020093061813_);fill:#EC2024;}
	.st14{clip-path:url(#SVGID_00000129186775527647228700000010466301246993564309_);fill:#EC2024;}
	.st15{clip-path:url(#SVGID_00000152968069102709160860000015655891419233565877_);fill:#D72027;}
	.st16{clip-path:url(#SVGID_00000083807628090758266000000004202763449150780289_);fill:#EC2024;}
	.st17{clip-path:url(#SVGID_00000037653712767747663150000017748779057003379852_);fill:#EC2024;}
	.st18{clip-path:url(#SVGID_00000105384787768383677360000016672238426887889323_);fill:#EC2024;}
	.st19{clip-path:url(#SVGID_00000114032309361209622530000009521357489450205338_);fill:#EC2024;}
	.st20{clip-path:url(#SVGID_00000008852110022474651730000015779396646176466082_);fill:#D72027;}
	.st21{clip-path:url(#SVGID_00000035524571271778334570000014418413449751406015_);fill:#EC2024;}
	.st22{clip-path:url(#SVGID_00000024714758018613990170000005876976880853152417_);fill:#EC2024;}
	.st23{clip-path:url(#SVGID_00000028320657711263000730000003700096647627195288_);fill:#EC2024;}
	.st24{clip-path:url(#SVGID_00000045607628649406339620000018079509912678742959_);fill:#EC2024;}
	
		.st25{opacity:0.25;clip-path:url(#SVGID_00000171697174973202043000000015177772478802880132_);fill:#F07713;enable-background:new    ;}
	.st26{clip-path:url(#SVGID_00000036244202484258072150000010214066427547147397_);fill:#BA4826;}
	
		.st27{opacity:0.25;clip-path:url(#SVGID_00000085963057719971987570000003833733220032102322_);fill:#F07713;enable-background:new    ;}
	.st28{clip-path:url(#SVGID_00000088815560969031249610000003913907686691838366_);fill:#BA4826;}
	
		.st29{opacity:0.25;clip-path:url(#SVGID_00000110443041136246377600000006993736387270513314_);fill:#F07713;enable-background:new    ;}
	.st30{clip-path:url(#SVGID_00000042696040840928103190000001781541437642959752_);fill:#BA4826;}
	.st31{fill:#AD4C45;}
	.st32{fill:#EC2024;}
	.st33{opacity:0.5;fill:#FB737F;enable-background:new    ;}
	.st34{fill:#8A4140;}
	.st35{opacity:0.15;fill:#0D000D;enable-background:new    ;}
</style>
<g id="Ebene_2_00000160148807616342287940000012031537724832627630_">
	<g>
		<path class="st0" d="M804.1,547.3c0,25.7-20.9,46.6-46.6,46.6H612c-25.7,0-46.6-20.9-46.6-46.6v-77.8c0-25.7,20.9-46.6,46.6-46.6
			h145.6c25.7,0,46.6,20.9,46.6,46.6L804.1,547.3L804.1,547.3z"/>
		<path class="st1" d="M804.1,435.1V513c0,25.7-20.9,46.6-46.6,46.6H612c-25.7,0-46.6-20.8-46.6-46.6v-77.8
			c0-25.7,20.8-46.6,46.6-46.6h145.6C783.3,388.6,804.1,409.4,804.1,435.1z"/>
		<g>
			<path class="st2" d="M650.9,548.8l-85.5-81.4v-31.6l101.3,96.4C677.5,542.5,662.1,559.5,650.9,548.8z"/>
			<path class="st2" d="M705.3,539.7L594.1,433.9c-11.3-10.8,5-26.9,15.8-16.6l111.2,105.9C732,533.5,716.6,550.5,705.3,539.7z"/>
			<path class="st2" d="M759.7,530.7L648.5,424.8c-11.3-10.8,5-26.9,15.8-16.6l111.2,105.9C786.4,524.5,771,541.4,759.7,530.7z"/>
			<path class="st2" d="M804.1,480.5v31.7L703,415.8c-11.3-10.8,5-26.9,15.8-16.6L804.1,480.5z"/>
		</g>
		<path class="st3" d="M853.9,445.7c25.7,0,46.6,20.9,46.6,46.6v145.6c0,25.7-20.9,46.6-46.6,46.6H776c-25.7,0-46.6-20.9-46.6-46.6
			V492.3c0-25.7,20.9-46.6,46.6-46.6L853.9,445.7L853.9,445.7z"/>
		<path class="st4" d="M741.7,445.7h77.8c25.7,0,46.6,20.9,46.6,46.6v145.6c0,25.7-20.8,46.6-46.6,46.6h-77.8
			c-25.7,0-46.6-20.8-46.6-46.6V492.3C695.1,466.6,716,445.7,741.7,445.7z"/>
		<g>
			<path class="st2" d="M855.3,599l-81.4,85.5h-31.6l96.4-101.3C849,572.3,866,587.7,855.3,599z"/>
			<path class="st2" d="M846.3,544.5L740.4,655.8c-10.8,11.3-26.9-5-16.6-15.8l105.9-111.2C840,517.9,857,533.3,846.3,544.5z"/>
			<path class="st2" d="M837.3,490.1L731.4,601.3c-10.8,11.3-26.9-5-16.6-15.8l105.9-111.2C831,463.4,848,478.9,837.3,490.1z"/>
			<path class="st2" d="M787,445.7h31.7l-96.3,101.1c-10.8,11.3-26.9-5-16.6-15.8L787,445.7z"/>
		</g>
		<g>
			<path class="st5" d="M543.5,528.2l8,7.6c0,0-18.3-1.7-23.3,33.4l2.9,2.7c0,0-5.4,13.7-0.2,29.1l73.2-77.6
				C581.7,502.2,555.8,511.9,543.5,528.2z"/>
			<path class="st6" d="M602.8,584.1l-8-7.6c0,0,2.8,18.2-32,25.2l-2.9-2.7c0,0-13.4,6.2-29,1.9l73.2-77.6
				C626.5,544.5,618.3,570.9,602.8,584.1z"/>
		</g>
		<g>
			<path class="st5" d="M818.4,689.7l6.3-4.4c0,0-3.8,12.4,19.6,20.8l2.3-1.6c0,0,8.7,5.7,20,4.3l-42.8-61.5
				C806,659.8,808.9,678.9,818.4,689.7z"/>
			<path class="st6" d="M865.3,657l-6.3,4.4c0,0,12.9,0.7,12.8,25.6l-2.3,1.6c0,0,2.3,10.1-2.9,20.2l-42.8-61.5
				C841.5,635,858.5,644.4,865.3,657z"/>
		</g>
		<g>
			<path class="st5" d="M831,470.8l-3-7.1c0,0,11.3,6.3,24.4-15l-1.1-2.6c0,0,7.3-7.3,8.3-18.7l-68.9,29.4
				C799.2,476.8,818.5,477.8,831,470.8z"/>
			<path class="st6" d="M808.6,418.2l3,7.1c0,0,3.3-12.5,27.7-7.3l1.1,2.6c0,0,10.3-0.2,19.2,6.9l-68.9,29.4
				C782.2,437,794.8,422.3,808.6,418.2z"/>
		</g>
	</g>
	<path class="st3" d="M386.6,35.7L260.2,407.8L3.6,110.1C51,59.2,112.1,22.9,182.7,9.2S323.6,6.2,386.6,35.7z"/>
	<g>
		<path class="st4" d="M375.3,69c-57.1-19.5-119.9-24.8-183.4-12.5S72.2,97.3,26.6,136.8l74.5,86.5c5.8,21.4-5,57.9,16.8,57.9
			c18.8,0,11.3-20.4,13.1-23.2l11,12.8c9.8,19.9-5.1,90,18.6,90s5.6-59.4,16.9-48.1c1.6,1.6,1.9,1.8,1.5,1.1l81.2,94.2L375.3,69z"/>
		<path class="st4" d="M160.6,370.8c-6.6,0-12,5.4-12,12s5.4,12,12,12s12-5.4,12-12S167.2,370.8,160.6,370.8z"/>
	</g>
	<path class="st7" d="M194.8,71.3c-82,21.4-116.8,39.3-159.7,75.4l-8.6-10c45.7-39.4,101.9-67.9,165.3-80.2
		c63.5-12.3,126.2-7,183.4,12.5L371,81.5C315.7,63.6,254.7,55.6,194.8,71.3z"/>
	<g>
		<g>
			<g>
				<defs>
					<path id="SVGID_1_" d="M375.3,69L260.2,407.8l-233.6-271c45.7-39.4,101.9-67.9,165.3-80.2C255.4,44.2,318.1,49.5,375.3,69z"/>
				</defs>
				<clipPath id="SVGID_00000052792197600447140000000002777683974143675549_">
					<use xlink:href="#SVGID_1_"  style="overflow:visible;"/>
				</clipPath>
				<g style="opacity:0.25;clip-path:url(#SVGID_00000052792197600447140000000002777683974143675549_);">
					<path class="st9" d="M310.3,111.9c22.8-4.5,45,10.2,49.4,32.8s-10.5,44.6-33.3,49.1s-45-10.2-49.4-32.8
						C272.6,138.3,287.5,116.4,310.3,111.9z"/>
					<path class="st9" d="M213.7,289.4c22.8-4.5,45,10.2,49.4,32.8c4.4,22.6-10.5,44.6-33.3,49.1s-45-10.2-49.4-32.8
						C175.9,315.9,190.9,293.9,213.7,289.4z"/>
					<path class="st9" d="M151.8,122.9c22.8-4.5,45,10.2,49.4,32.8c4.4,22.6-10.5,44.6-33.3,49.1s-45-10.2-49.4-32.8
						C114.1,149.3,129,127.4,151.8,122.9z"/>
				</g>
			</g>
		</g>
		<g>
			<g>
				<defs>
					<path id="SVGID_00000001646852624104842630000010617121431476632966_" d="M375.3,69L260.2,407.8l-233.6-271
						c45.7-39.4,101.9-67.9,165.3-80.2C255.4,44.2,318.1,49.5,375.3,69z"/>
				</defs>
				<clipPath id="SVGID_00000093164250591640224750000014988336663403575206_">
					<use xlink:href="#SVGID_00000001646852624104842630000010617121431476632966_"  style="overflow:visible;"/>
				</clipPath>
				<path style="clip-path:url(#SVGID_00000093164250591640224750000014988336663403575206_);fill:#D72027;" d="M275.6,153.6
					c4.4,22.6,26.6,37.3,49.4,32.8s37.8-26.5,33.3-49.1c-4.4-22.6-26.6-37.3-49.4-32.8C286.1,109,271.1,130.9,275.6,153.6z"/>
			</g>
		</g>
		<g>
			<g>
				<defs>
					<path id="SVGID_00000030447118527969655530000016623857317405904554_" d="M375.3,69L260.2,407.8l-233.6-271
						c45.7-39.4,101.9-67.9,165.3-80.2C255.4,44.2,318.1,49.5,375.3,69z"/>
				</defs>
				<clipPath id="SVGID_00000034079128883060425220000001693457658180391575_">
					<use xlink:href="#SVGID_00000030447118527969655530000016623857317405904554_"  style="overflow:visible;"/>
				</clipPath>
				<path style="clip-path:url(#SVGID_00000034079128883060425220000001693457658180391575_);fill:#EC2024;" d="M310.6,146.7
					l-16.1,23.2c-11.2-9.7-14.3-25.5-7.6-38.7L310.6,146.7z"/>
			</g>
		</g>
		<g>
			<g>
				<defs>
					<path id="SVGID_00000111900454818471019370000002895651568448979371_" d="M375.3,69L260.2,407.8l-233.6-271
						c45.7-39.4,101.9-67.9,165.3-80.2C255.4,44.2,318.1,49.5,375.3,69z"/>
				</defs>
				<clipPath id="SVGID_00000089544673188649890400000013070996174726057892_">
					<use xlink:href="#SVGID_00000111900454818471019370000002895651568448979371_"  style="overflow:visible;"/>
				</clipPath>
				<path style="clip-path:url(#SVGID_00000089544673188649890400000013070996174726057892_);fill:#EC2024;" d="M315.7,139.3
					L292,123.9c10-11,26.3-14.2,39.7-7.8L315.7,139.3z"/>
			</g>
		</g>
		<g>
			<g>
				<defs>
					<path id="SVGID_00000063622647644892144270000014650856633649025208_" d="M375.3,69L260.2,407.8l-233.6-271
						c45.7-39.4,101.9-67.9,165.3-80.2C255.4,44.2,318.1,49.5,375.3,69z"/>
				</defs>
				<clipPath id="SVGID_00000178920756647585977940000014844418565515209663_">
					<use xlink:href="#SVGID_00000063622647644892144270000014650856633649025208_"  style="overflow:visible;"/>
				</clipPath>
				<path style="clip-path:url(#SVGID_00000178920756647585977940000014844418565515209663_);fill:#EC2024;" d="M323.3,144.2
					l16.1-23.2c11.1,9.7,14.3,25.5,7.6,38.7L323.3,144.2z"/>
			</g>
		</g>
		<g>
			<g>
				<defs>
					<path id="SVGID_00000009588870636090409720000010219595722684758955_" d="M375.3,69L260.2,407.8l-233.6-271
						c45.7-39.4,101.9-67.9,165.3-80.2C255.4,44.2,318.1,49.5,375.3,69z"/>
				</defs>
				<clipPath id="SVGID_00000039131336275986696510000000291479181142903941_">
					<use xlink:href="#SVGID_00000009588870636090409720000010219595722684758955_"  style="overflow:visible;"/>
				</clipPath>
				<path style="clip-path:url(#SVGID_00000039131336275986696510000000291479181142903941_);fill:#EC2024;" d="M318.2,151.6
					l23.7,15.4c-10,11-26.3,14.2-39.7,7.8L318.2,151.6z"/>
			</g>
		</g>
		<g>
			<g>
				<defs>
					<path id="SVGID_00000123398711972557173660000000730930099735083428_" d="M375.3,69L260.2,407.8l-233.6-271
						c45.7-39.4,101.9-67.9,165.3-80.2C255.4,44.2,318.1,49.5,375.3,69z"/>
				</defs>
				<clipPath id="SVGID_00000172416855357102120670000003921742757967053215_">
					<use xlink:href="#SVGID_00000123398711972557173660000000730930099735083428_"  style="overflow:visible;"/>
				</clipPath>
				<path style="clip-path:url(#SVGID_00000172416855357102120670000003921742757967053215_);fill:#D72027;" d="M178.9,331.1
					c4.4,22.6,26.6,37.3,49.4,32.8s37.8-26.5,33.3-49.1c-4.4-22.6-26.6-37.3-49.4-32.8S174.5,308.5,178.9,331.1z"/>
			</g>
		</g>
		<g>
			<g>
				<defs>
					<path id="SVGID_00000136372203252484420230000013059951690151075485_" d="M375.3,69L260.2,407.8l-233.6-271
						c45.7-39.4,101.9-67.9,165.3-80.2C255.4,44.2,318.1,49.5,375.3,69z"/>
				</defs>
				<clipPath id="SVGID_00000060012728438476029360000003617893264590237064_">
					<use xlink:href="#SVGID_00000136372203252484420230000013059951690151075485_"  style="overflow:visible;"/>
				</clipPath>
				<path style="clip-path:url(#SVGID_00000060012728438476029360000003617893264590237064_);fill:#EC2024;" d="M214,324.2
					l-16.1,23.2c-11.1-9.7-14.3-25.5-7.6-38.7L214,324.2z"/>
			</g>
		</g>
		<g>
			<g>
				<defs>
					<path id="SVGID_00000120560329437933017910000007203775045602333065_" d="M375.3,69L260.2,407.8l-233.6-271
						c45.7-39.4,101.9-67.9,165.3-80.2C255.4,44.2,318.1,49.5,375.3,69z"/>
				</defs>
				<clipPath id="SVGID_00000023966337881614885910000017383086289329672612_">
					<use xlink:href="#SVGID_00000120560329437933017910000007203775045602333065_"  style="overflow:visible;"/>
				</clipPath>
				<path style="clip-path:url(#SVGID_00000023966337881614885910000017383086289329672612_);fill:#EC2024;" d="M219.1,316.8
					l-23.7-15.4c10-11,26.3-14.2,39.7-7.8L219.1,316.8z"/>
			</g>
		</g>
		<g>
			<g>
				<defs>
					<path id="SVGID_00000063596156747749090090000006427959471835542702_" d="M375.3,69L260.2,407.8l-233.6-271
						c45.7-39.4,101.9-67.9,165.3-80.2C255.4,44.2,318.1,49.5,375.3,69z"/>
				</defs>
				<clipPath id="SVGID_00000043458888746349754450000015540928693532527509_">
					<use xlink:href="#SVGID_00000063596156747749090090000006427959471835542702_"  style="overflow:visible;"/>
				</clipPath>
				<path style="clip-path:url(#SVGID_00000043458888746349754450000015540928693532527509_);fill:#EC2024;" d="M226.6,321.8
					l16.1-23.2c11.1,9.7,14.3,25.5,7.6,38.7L226.6,321.8z"/>
			</g>
		</g>
		<g>
			<g>
				<defs>
					<path id="SVGID_00000004509575303483251990000015134151787091255189_" d="M375.3,69L260.2,407.8l-233.6-271
						c45.7-39.4,101.9-67.9,165.3-80.2C255.4,44.2,318.1,49.5,375.3,69z"/>
				</defs>
				<clipPath id="SVGID_00000176018262890226362630000002280309274256736657_">
					<use xlink:href="#SVGID_00000004509575303483251990000015134151787091255189_"  style="overflow:visible;"/>
				</clipPath>
				<path style="clip-path:url(#SVGID_00000176018262890226362630000002280309274256736657_);fill:#EC2024;" d="M221.5,329.2
					l23.7,15.4c-10,11-26.3,14.2-39.7,7.8L221.5,329.2z"/>
			</g>
		</g>
		<g>
			<g>
				<defs>
					<path id="SVGID_00000081640583185098482290000005877516428519231898_" d="M375.3,69L260.2,407.8l-233.6-271
						c45.7-39.4,101.9-67.9,165.3-80.2C255.4,44.2,318.1,49.5,375.3,69z"/>
				</defs>
				<clipPath id="SVGID_00000103955195076574344220000010074634191270755224_">
					<use xlink:href="#SVGID_00000081640583185098482290000005877516428519231898_"  style="overflow:visible;"/>
				</clipPath>
				<path style="clip-path:url(#SVGID_00000103955195076574344220000010074634191270755224_);fill:#D72027;" d="M117.1,164.6
					c4.4,22.6,26.6,37.3,49.4,32.8s37.8-26.5,33.3-49.1c-4.4-22.6-26.6-37.3-49.4-32.8C127.5,120,112.6,141.9,117.1,164.6z"/>
			</g>
		</g>
		<g>
			<g>
				<defs>
					<path id="SVGID_00000074426653984109834240000007923031163157471923_" d="M375.3,69L260.2,407.8l-233.6-271
						c45.7-39.4,101.9-67.9,165.3-80.2C255.4,44.2,318.1,49.5,375.3,69z"/>
				</defs>
				<clipPath id="SVGID_00000129197577764256977980000007663587618886515622_">
					<use xlink:href="#SVGID_00000074426653984109834240000007923031163157471923_"  style="overflow:visible;"/>
				</clipPath>
				<path style="clip-path:url(#SVGID_00000129197577764256977980000007663587618886515622_);fill:#EC2024;" d="M152.1,157.7
					L136,180.9c-11.1-9.7-14.3-25.5-7.6-38.7L152.1,157.7z"/>
			</g>
		</g>
		<g>
			<g>
				<defs>
					<path id="SVGID_00000011731384642942828630000003321973026088274853_" d="M375.3,69L260.2,407.8l-233.6-271
						c45.7-39.4,101.9-67.9,165.3-80.2C255.4,44.2,318.1,49.5,375.3,69z"/>
				</defs>
				<clipPath id="SVGID_00000159461806899908085400000010499566820966889404_">
					<use xlink:href="#SVGID_00000011731384642942828630000003321973026088274853_"  style="overflow:visible;"/>
				</clipPath>
				<path style="clip-path:url(#SVGID_00000159461806899908085400000010499566820966889404_);fill:#EC2024;" d="M157.2,150.3
					l-23.7-15.4c10-11,26.3-14.2,39.7-7.8L157.2,150.3z"/>
			</g>
		</g>
		<g>
			<g>
				<defs>
					<path id="SVGID_00000096749756804361324860000000155620498300129922_" d="M375.3,69L260.2,407.8l-233.6-271
						c45.7-39.4,101.9-67.9,165.3-80.2C255.4,44.2,318.1,49.5,375.3,69z"/>
				</defs>
				<clipPath id="SVGID_00000134207859877584051100000015890738196596002987_">
					<use xlink:href="#SVGID_00000096749756804361324860000000155620498300129922_"  style="overflow:visible;"/>
				</clipPath>
				<path style="clip-path:url(#SVGID_00000134207859877584051100000015890738196596002987_);fill:#EC2024;" d="M164.8,155.2
					l16.1-23.2c11.1,9.7,14.3,25.5,7.6,38.7L164.8,155.2z"/>
			</g>
		</g>
		<g>
			<g>
				<defs>
					<path id="SVGID_00000048495230496884180020000013055427104288727690_" d="M375.3,69L260.2,407.8l-233.6-271
						c45.7-39.4,101.9-67.9,165.3-80.2C255.4,44.2,318.1,49.5,375.3,69z"/>
				</defs>
				<clipPath id="SVGID_00000147187687272772024790000013498265751700684721_">
					<use xlink:href="#SVGID_00000048495230496884180020000013055427104288727690_"  style="overflow:visible;"/>
				</clipPath>
				<path style="clip-path:url(#SVGID_00000147187687272772024790000013498265751700684721_);fill:#EC2024;" d="M159.6,162.6
					l23.7,15.4c-10,11-26.3,14.2-39.7,7.8L159.6,162.6z"/>
			</g>
		</g>
		<g>
			<g>
				<defs>
					<path id="SVGID_00000042732558407805189590000008339954338222712999_" d="M375.3,69L260.2,407.8l-233.6-271
						c45.7-39.4,101.9-67.9,165.3-80.2C255.4,44.2,318.1,49.5,375.3,69z"/>
				</defs>
				<clipPath id="SVGID_00000138543772102977739680000006678062081862980788_">
					<use xlink:href="#SVGID_00000042732558407805189590000008339954338222712999_"  style="overflow:visible;"/>
				</clipPath>
				
					<path style="opacity:0.25;clip-path:url(#SVGID_00000138543772102977739680000006678062081862980788_);fill:#F07713;enable-background:new    ;" d="
					M212.7,118.4c2.5,13,15.1,21.4,28,18.9c13-2.5,21.4-15.1,18.9-28c-2.5-13-15.1-21.4-28-18.9C218.7,92.9,210.2,105.5,212.7,118.4
					z"/>
			</g>
		</g>
		<g>
			<g>
				<defs>
					<path id="SVGID_00000092419627993623034700000013713532095568206980_" d="M375.3,69L260.2,407.8l-233.6-271
						c45.7-39.4,101.9-67.9,165.3-80.2C255.4,44.2,318.1,49.5,375.3,69z"/>
				</defs>
				<clipPath id="SVGID_00000041999567303608800940000000279486518309598905_">
					<use xlink:href="#SVGID_00000092419627993623034700000013713532095568206980_"  style="overflow:visible;"/>
				</clipPath>
				<path style="clip-path:url(#SVGID_00000041999567303608800940000000279486518309598905_);fill:#BA4826;" d="M211.3,111.1
					c2.5,13,15.1,21.4,28,18.9c13-2.5,21.4-15.1,18.9-28c-2.5-13-15.1-21.4-28-18.9C217.2,85.5,208.8,98.1,211.3,111.1z"/>
			</g>
		</g>
		<g>
			<g>
				<defs>
					<path id="SVGID_00000057846532326520577270000018227628933354496440_" d="M375.3,69L260.2,407.8l-233.6-271
						c45.7-39.4,101.9-67.9,165.3-80.2C255.4,44.2,318.1,49.5,375.3,69z"/>
				</defs>
				<clipPath id="SVGID_00000101072833114681793910000003833407249543894435_">
					<use xlink:href="#SVGID_00000057846532326520577270000018227628933354496440_"  style="overflow:visible;"/>
				</clipPath>
				
					<path style="opacity:0.25;clip-path:url(#SVGID_00000101072833114681793910000003833407249543894435_);fill:#F07713;enable-background:new    ;" d="
					M158.4,256.6c2.5,13,15.1,21.4,28,18.9c13-2.5,21.4-15.1,18.9-28c-2.5-13-15.1-21.4-28-18.9
					C164.3,231.1,155.8,243.7,158.4,256.6z"/>
			</g>
		</g>
		<g>
			<g>
				<defs>
					<path id="SVGID_00000029045555746439883290000011325911328323884463_" d="M375.3,69L260.2,407.8l-233.6-271
						c45.7-39.4,101.9-67.9,165.3-80.2C255.4,44.2,318.1,49.5,375.3,69z"/>
				</defs>
				<clipPath id="SVGID_00000056424979121433945550000015563639445072552635_">
					<use xlink:href="#SVGID_00000029045555746439883290000011325911328323884463_"  style="overflow:visible;"/>
				</clipPath>
				<path style="clip-path:url(#SVGID_00000056424979121433945550000015563639445072552635_);fill:#BA4826;" d="M156.9,249.2
					c2.5,13,15.1,21.4,28,18.9c13-2.5,21.4-15.1,18.9-28c-2.5-13-15.1-21.4-28-18.9C162.9,223.7,154.4,236.3,156.9,249.2z"/>
			</g>
		</g>
		<g>
			<g>
				<defs>
					<path id="SVGID_00000127740956679096219000000005525901048153547674_" d="M375.3,69L260.2,407.8l-233.6-271
						c45.7-39.4,101.9-67.9,165.3-80.2C255.4,44.2,318.1,49.5,375.3,69z"/>
				</defs>
				<clipPath id="SVGID_00000011724207819501078750000009635110294360457891_">
					<use xlink:href="#SVGID_00000127740956679096219000000005525901048153547674_"  style="overflow:visible;"/>
				</clipPath>
				
					<path style="opacity:0.25;clip-path:url(#SVGID_00000011724207819501078750000009635110294360457891_);fill:#F07713;enable-background:new    ;" d="
					M289.8,246.4c2.5,13,15.1,21.4,28,18.9c13-2.5,21.4-15.1,18.9-28c-2.5-13-15.1-21.4-28-18.9S287.3,233.4,289.8,246.4z"/>
			</g>
		</g>
		<g>
			<g>
				<defs>
					<path id="SVGID_00000088127870209990908820000004243767146843610801_" d="M375.3,69L260.2,407.8l-233.6-271
						c45.7-39.4,101.9-67.9,165.3-80.2C255.4,44.2,318.1,49.5,375.3,69z"/>
				</defs>
				<clipPath id="SVGID_00000088107910419412209020000009159549605247094917_">
					<use xlink:href="#SVGID_00000088127870209990908820000004243767146843610801_"  style="overflow:visible;"/>
				</clipPath>
				<path style="clip-path:url(#SVGID_00000088107910419412209020000009159549605247094917_);fill:#BA4826;" d="M288.4,239
					c2.5,13,15.1,21.4,28,18.9c13-2.5,21.4-15.1,18.9-28c-2.5-13-15.1-21.4-28-18.9S285.9,226,288.4,239z"/>
			</g>
		</g>
	</g>
	<path class="st5" d="M222.3,197.4c9.8,16.3,33.6,19.9,33.6,19.9s7.8-22.7-2.1-39c-9.8-16.3-33.6-19.9-33.6-19.9
		S212.4,181.2,222.3,197.4z"/>
	<path class="st6" d="M222.3,197.4c9.8,16.3,33.6,19.9,33.6,19.9l-35.6-58.9C220.2,158.4,212.4,181.2,222.3,197.4z"/>
	<path class="st5" d="M235.3,274.9c-6.9,17.7,4.6,38.8,4.6,38.8s22.8-7.6,29.7-25.3c6.9-17.7-4.6-38.8-4.6-38.8
		S242.3,257.2,235.3,274.9z"/>
	<path class="st6" d="M235.3,274.9c-6.9,17.7,4.6,38.8,4.6,38.8l25.1-64.1C265,249.5,242.3,257.2,235.3,274.9z"/>
	<path class="st5" d="M70.9,141.1c-6.9,17.7,4.6,38.8,4.6,38.8s22.8-7.6,29.7-25.3c6.9-17.7-4.6-38.8-4.6-38.8
		S77.9,123.4,70.9,141.1z"/>
	<path class="st6" d="M70.9,141.1c-6.9,17.7,4.6,38.8,4.6,38.8l25.1-64.1C100.6,115.7,77.9,123.4,70.9,141.1z"/>
	<path class="st5" d="M98.2,380.7c10.2,16,34,19.2,34,19.2s7.3-22.9-2.9-38.9s-34-19.2-34-19.2S88,364.6,98.2,380.7z"/>
	<path class="st6" d="M98.2,380.7c10.2,16,34,19.2,34,19.2l-36.9-58.1C95.3,341.7,88,364.6,98.2,380.7z"/>
	<path class="st5" d="M88.2,25.3c-6.9,17.7,4.6,38.8,4.6,38.8s22.8-7.6,29.7-25.3c6.9-17.7-4.6-38.8-4.6-38.8S95.1,7.6,88.2,25.3z"
		/>
	<path class="st6" d="M88.2,25.3c-6.9,17.7,4.6,38.8,4.6,38.8L117.9,0C117.9,0,95.1,7.6,88.2,25.3z"/>
	<path class="st5" d="M279.5,100.5c-6.9,17.7,4.6,38.8,4.6,38.8s22.8-7.6,29.7-25.3c6.9-17.7-4.6-38.8-4.6-38.8
		S286.5,82.8,279.5,100.5z"/>
	<path class="st6" d="M279.5,100.5c-6.9,17.7,4.6,38.8,4.6,38.8l25.1-64.1C309.2,75.2,286.5,82.8,279.5,100.5z"/>
	<path class="st5" d="M394,210.6c4.2,18.5,25.6,29.5,25.6,29.5s14.5-19.1,10.3-37.6S404.3,173,404.3,173S389.8,192.1,394,210.6z"/>
	<path class="st6" d="M394,210.6c4.2,18.5,25.6,29.5,25.6,29.5L404.3,173C404.3,173,389.8,192.1,394,210.6z"/>
	<polygon class="st1" points="128.9,463.9 618.8,934.1 638.2,912.8 140.6,451.2 	"/>
	<polygon class="st3" points="128.9,463.9 618.8,934.1 628.5,923.5 134.1,458.3 	"/>
	<path class="st31" d="M217.4,517.9c-34.1,14.7-54.5,43.2-45.7,63.7s43.6,25.2,77.7,10.5s54.5-43.2,45.7-63.7
		C286.3,507.9,251.5,503.2,217.4,517.9z"/>
	<path class="st1" d="M174.4,580.4c8.1,18.7,41.9,22.9,73.8,9.1c32-13.8,52.2-41.2,44.1-59.9s-41.9-22.9-73.8-9.1
		C186.6,534.3,166.4,561.7,174.4,580.4z"/>
	<path class="st32" d="M202,568.5c5.5,12.7,22.3,12.2,39.3,4.9s29.1-18.7,23.5-31.9c-5.7-13.2-22.3-12.2-39.3-4.9
		C208.5,544,196.6,555.9,202,568.5z"/>
	<path class="st33" d="M203.8,552.9c-1.6,3.9-1.9,8.1,0,12.3c5.5,12.7,22.3,12.2,39.3,4.9c9.7-4.2,17.7-9.7,21.8-16.1
		c-3.2,7.8-12.2,14.5-23.6,19.4c-17,7.3-33.8,7.8-39.3-4.9C199.7,563.1,200.7,557.8,203.8,552.9z"/>
	<path class="st34" d="M249.4,592.1c34.1-14.7,54.5-43.2,45.7-63.7l32,74.2c8.8,20.5-11.6,49-45.7,63.7s-68.9,10-77.7-10.5l-32-74.2
		C180.5,602.1,215.3,606.8,249.4,592.1z"/>
	<path class="st35" d="M215.8,600.5l32,74.2c-20.9,1.3-38.2-5.3-44.1-18.9l-32-74.2C177.6,595.2,194.9,601.8,215.8,600.5z"/>
	<path class="st35" d="M194.8,635.3l1.7,3.9c8.8,20.5,43.6,25.2,77.7,10.5s54.5-43.2,45.7-63.7l-1.7-3.9c8.8,20.5-11.6,49-45.7,63.7
		C238.5,660.5,203.7,655.8,194.8,635.3z M265.4,629.2c34.1-14.7,54.5-43.2,45.7-63.7l1.7,3.9c8.8,20.5-11.6,49-45.7,63.7
		s-68.9,10-77.7-10.5l-1.7-3.9C196.5,639.2,231.3,643.9,265.4,629.2z M258.2,612.5c34.1-14.7,54.5-43.2,45.7-63.7l1.7,3.9
		c8.8,20.5-11.6,49-45.7,63.7s-68.9,10-77.7-10.5l-1.7-3.9C189.3,622.5,224.1,627.2,258.2,612.5z"/>
	<polygon class="st1" points="112.3,502.5 575.7,1000 596,979.7 124.6,490.3 	"/>
	<polygon class="st3" points="112.3,502.5 575.7,1000 585.8,989.8 117.8,497 	"/>
</g>
</svg>
