<?xml version="1.0" encoding="utf-8"?>
<!-- Generator: Adobe Illustrator 26.5.0, SVG Export Plug-In . SVG Version: 6.00 Build 0)  -->
<svg version="1.1" id="Ebene_1" xmlns="http://www.w3.org/2000/svg" xmlns:xlink="http://www.w3.org/1999/xlink" x="0px" y="0px"
	 viewBox="0 0 1000 1000" style="enable-background:new 0 0 1000 1000;" xml:space="preserve">
<style type="text/css">
	.st0{fill:#FFFFFF;}
	.st1{fill:#3C3C3B;}
	.st2{fill:#EBEBEB;}
	.st3{fill:#C0EFFF;}
	.st4{fill:#D72027;}
	.st5{fill:#C9C9CA;}
	.st6{fill:#EC2024;}
	.st7{fill:#33877F;}
	.st8{fill:#E8A459;}
	.st9{fill:#F7CA85;}
	.st10{fill:#FF69B4;}
</style>
<path class="st0" d="M805.6,714.8c0,0-3.6,35.8-31.9,38.3c28.2,2.5,31.9,38.3,31.9,38.3s3.6-35.8,31.9-38.3
	C809.2,750.5,805.6,714.8,805.6,714.8z"/>
<path class="st0" d="M175.9,470c0,0-3.4,33.9-30.2,36.2c26.7,2.3,30.2,36.2,30.2,36.2s3.4-33.9,30.2-36.2
	C179.3,503.9,175.9,470,175.9,470z"/>
<path class="st0" d="M837.5,604.5c0,0-2.4,23.7-21.1,25.3c18.7,1.6,21.1,25.3,21.1,25.3s2.4-23.7,21.1-25.3
	C839.9,628.2,837.5,604.5,837.5,604.5z"/>
<path class="st0" d="M232.1,390.7c0,0-2.3,22.4-20,24c17.7,1.6,20,24,20,24s2.3-22.4,20-24C234.4,413.1,232.1,390.7,232.1,390.7z"/>
<path class="st0" d="M771.2,544.7c0,0-1.1,10.6-9.4,11.3c8.4,0.7,9.4,11.3,9.4,11.3s1.1-10.6,9.4-11.3
	C772.2,555.3,771.2,544.7,771.2,544.7z"/>
<path class="st0" d="M240.6,531.7c0,0-1,10-8.9,10.7c7.9,0.7,8.9,10.7,8.9,10.7s1-10,8.9-10.7C241.6,541.7,240.6,531.7,240.6,531.7z
	"/>
<path class="st1" d="M664.7,0H335.3c-24.5,0-44.4,19.9-44.4,44.4v548v125c0,24.7,20.1,44.4,44.4,44.4h329.3
	c24.5,0,44.4-19.9,44.4-44.4v-548v-125C709.1,19.7,689,0,664.7,0z"/>
<rect x="312.5" y="60.5" class="st0" width="375.1" height="591.3"/>
<path class="st2" d="M576.5,40.4H424.1c-2.2,0-4-1.8-4-4l0,0c0-2.2,1.8-4,4-4h152.5c2.2,0,4,1.8,4,4l0,0
	C580.6,38.6,578.8,40.4,576.5,40.4z"/>
<rect x="312.5" y="60.5" class="st3" width="375.1" height="34"/>
<path class="st4" d="M559.9,188.3L559.9,188.3c-16.5,0-29.9-13.4-29.9-29.9v-22.2h59.8v22.2C589.8,174.9,576.4,188.3,559.9,188.3z"
	/>
<path class="st5" d="M500.1,188.3L500.1,188.3c-16.5,0-29.9-13.4-29.9-29.9v-22.2H530v22.2C530,174.9,516.6,188.3,500.1,188.3z"/>
<path class="st4" d="M440.2,188.3L440.2,188.3c-16.5,0-29.9-13.4-29.9-29.9v-22.2h59.8v22.2C470.2,174.9,456.8,188.3,440.2,188.3z"
	/>
<path class="st5" d="M380.4,188.3L380.4,188.3c-16.5,0-29.9-13.4-29.9-29.9v-22.2h59.8v22.2C410.3,174.9,396.9,188.3,380.4,188.3z"
	/>
<path class="st4" d="M320.6,188.3L320.6,188.3c-16.5,0-29.9-13.4-29.9-29.9v-22.2h59.8v22.2C350.5,174.9,337.1,188.3,320.6,188.3z"
	/>
<path class="st5" d="M739.3,188.3L739.3,188.3c-16.5,0-29.9-13.4-29.9-29.9v-22.2h59.8v22.2C769.2,174.9,755.8,188.3,739.3,188.3z"
	/>
<path class="st4" d="M679.4,188.3L679.4,188.3c-16.5,0-29.9-13.4-29.9-29.9v-22.2h59.8v22.2C709.4,174.9,696,188.3,679.4,188.3z"/>
<path class="st5" d="M619.7,188.3L619.7,188.3c-16.5,0-29.9-13.4-29.9-29.9v-22.2h59.8v22.2C649.7,174.9,636.3,188.3,619.7,188.3z"
	/>
<path class="st5" d="M260.7,188.3L260.7,188.3c-16.5,0-29.9-13.4-29.9-29.9v-22.2h59.8v22.2C290.6,174.9,277.2,188.3,260.7,188.3z"
	/>
<polygon class="st2" points="521.3,60.5 478.8,60.5 470.2,136.2 530,136.2 "/>
<polygon class="st6" points="478.8,60.5 436.3,60.5 410.3,136.2 470.2,136.2 "/>
<polygon class="st2" points="436.3,60.5 393.7,60.5 350.5,136.2 410.3,136.2 "/>
<polygon class="st6" points="393.7,60.5 351.2,60.5 290.6,136.2 350.5,136.2 "/>
<polygon class="st2" points="351.2,60.5 308.6,60.5 230.8,136.2 290.6,136.2 "/>
<polygon class="st2" points="691.2,60.5 648.7,60.5 709.4,136.2 769.2,136.2 "/>
<polygon class="st6" points="648.9,60.5 606.4,60.5 649.5,136.2 709.4,136.2 "/>
<polygon class="st2" points="606.4,60.5 563.8,60.5 589.8,136.2 649.7,136.2 "/>
<polygon class="st6" points="563.8,60.5 521.3,60.5 530,136.2 589.8,136.2 "/>
<ellipse transform="matrix(0.7071 -0.7071 0.7071 0.7071 -349.8695 559.1524)" class="st2" cx="500" cy="701.9" rx="23.9" ry="23.9"/>
<path class="st7" d="M605.2,295"/>
<g>
	<path class="st8" d="M583.8,473.1l-8.2-156.9c-0.2-4.2-4.3-7.7-9.2-7.7h-27.1v-20c0-7.8-6.3-14.1-14.1-14.1h-19.9
		c-7.8,0-14.1,6.3-14.1,14.1v20h-27.1c-4.8,0-9,3.4-9.2,7.7l-8.2,156.9c-0.3,5.5,4,10,9.6,10H574
		C579.8,483.2,584.1,478.6,583.8,473.1z M500.2,288.6c0-2.9,2.3-5.2,5.2-5.2h19.9c2.9,0,5.2,2.3,5.2,5.2v20h-30.3L500.2,288.6
		L500.2,288.6z"/>
	<path class="st9" d="M634.3,378.8h-28.6l4.8-18.4l21.3-14.4c1.7-1.1,2.1-3.4,1-5c-1.1-1.7-3.4-2.1-5-1l-22.4,15.2
		c-0.7,0.5-1.3,1.2-1.5,2.1l-5.6,21.5h-28.7c-2.3,0-4.2,1.9-4.2,4.2v16.8c0,2.1,1.6,3.8,3.6,4.1l6.4,85.8c0.3,3.5,3.3,6.3,6.7,6.3
		H622c3.4,0,6.4-2.8,6.7-6.3l6.4-85.8c2-0.3,3.6-2,3.6-4.1V383C638.4,380.7,636.6,378.8,634.3,378.8z"/>
	<polygon class="st9" points="487.6,461.4 481.1,461.4 468.4,432.2 380.9,432.2 368.2,461.4 361.7,461.4 361.7,468 368.6,468 
		380.9,498 468.4,498 480.7,468 487.6,468 	"/>
</g>
<path class="st10" d="M510.9,576.1c-43.1,0-78.1-35-78.1-78.1s35-78.1,78.1-78.1s78.1,35,78.1,78.1
	C588.9,541.1,553.9,576.1,510.9,576.1z M510.9,431.6c-36.6,0-66.4,29.8-66.4,66.4s29.8,66.4,66.4,66.4s66.4-29.8,66.4-66.4
	C577.2,461.4,547.5,431.6,510.9,431.6z"/>
<path class="st10" d="M500.9,534.5c-2.1,0-4.2-0.8-5.7-2.3l-21.9-20.6c-3.4-3.2-3.5-8.5-0.4-11.8c3.2-3.4,8.5-3.5,11.8-0.4
	l15.2,14.3l40-52c2.8-3.7,8.1-4.4,11.7-1.5c3.7,2.8,4.4,8.1,1.5,11.7l-45.6,59.3c-1.4,1.9-3.6,3.1-6,3.2
	C501.4,534.5,501.2,534.5,500.9,534.5z"/>
</svg>
