<?xml version="1.0" encoding="utf-8"?>
<!-- Generator: Adobe Illustrator 26.5.0, SVG Export Plug-In . SVG Version: 6.00 Build 0)  -->
<svg version="1.1" id="Ebene_1" xmlns="http://www.w3.org/2000/svg" xmlns:xlink="http://www.w3.org/1999/xlink" x="0px" y="0px"
	 viewBox="0 0 1000 1000" style="enable-background:new 0 0 1000 1000;" xml:space="preserve">
<style type="text/css">
	.st0{fill:#D79952;}
	.st1{fill:#E8A459;}
	.st2{fill:#231F20;}
	.st3{fill:#6D6F71;}
	.st4{fill:#CE8E55;}
	.st5{fill:#ACD29A;}
	.st6{fill:#82B378;}
	.st7{fill:#414142;}
	.st8{fill:#E2AA8F;}
	.st9{fill:#CA9981;}
	.st10{fill:#EBBA56;}
</style>
<g id="Ebene_4">
	<path class="st0" d="M494.4,503.7l-118.7-52.1c-9.8-4.3-14.2-15.7-9.9-25.5l66.1-150.5c4.3-9.8,15.7-14.2,25.5-9.9L576,317.8
		L494.4,503.7z"/>
	<path class="st1" d="M494.4,503.7L367.6,448l51.4-81.8c19-30.2,57.2-41.9,89.8-27.6l48.7,21.4L494.4,503.7z"/>
	<path class="st2" d="M432.7,859.3c0-0.8,0-1.6-0.1-2.4l102.5-17.2l-0.5-3.2l-102.5,17.2c-1.2-5.2-4.2-9.8-8.3-13.1l62.2-88.8
		l-2.7-1.9l-59.7,85.2l32.2-96.5l-3.1-1l-33.4,100.2c-2.7-1.4-5.8-2.2-9-2.4v-107H407v107c-1.9,0.1-3.7,0.5-5.4,1l-33.2-92.5
		l-3.1,1.1l31.6,88.1l-63.5-73.2l-2.5,2.1l66.2,76.3c-3.5,1.9-6.4,4.6-8.6,7.9l-3.7-0.6l-92.6-47l-1.5,2.9l83.2,42.2l-92.8-16
		l-0.6,3.2l103.2,17.7l2.7,1.4c-1.2,2.9-1.9,6-1.9,9.4c0,0.6,0,1.3,0.1,1.9l-102.4,15.2l0.5,3.2l102.4-15.2c0.2,1,0.5,1.9,0.8,2.8
		l-93.5,40.2l1.3,3l93.5-40.2c0,0,0,0.1,0.1,0.1l-73.4,74l2.3,2.3l72.8-73.5c1.5,2.1,3.3,3.9,5.3,5.4l-53.9,84.7l2.7,1.7l53.8-84.7
		c0.5,0.3,1,0.5,1.4,0.7c-13.5,35.4-38.1,100.3-38.7,102.1l3.1,1c0.5-1.6,22.2-58.8,38.6-102c2.2,0.7,4.6,1,7,1c0.4,0,0.8,0,1.2,0
		L401.4,986l3.2,0.3l8.6-103.4c1-0.2,2-0.5,3-0.8c16.9,41.6,39.1,96.3,39.7,98.1l3.1-1c-0.6-1.8-25.8-63.9-39.8-98.3
		c0.3-0.1,0.6-0.3,0.9-0.5l57.1,90.4l2.7-1.7l-57.2-90.4c2.3-1.7,4.2-3.7,5.8-6.1l84.8,58.8l1.9-2.7l-85.1-59
		C431.9,866.6,432.7,863,432.7,859.3z"/>
	<path class="st2" d="M408.7,1000c-77.6,0-140.7-63.1-140.7-140.7s63.1-140.7,140.7-140.7s140.7,63.1,140.7,140.7
		c0,24.9-6.6,49.3-19,70.7c-12.2,20.9-29.6,38.4-50.5,50.7C458.4,993.3,433.8,1000,408.7,1000z M408.7,738.1
		c-66.8,0-121.2,54.4-121.2,121.2s54.4,121.2,121.2,121.2c21.6,0,42.8-5.7,61.3-16.6c18-10.6,33-25.7,43.5-43.7
		c10.7-18.4,16.4-39.5,16.4-60.9C529.9,792.5,475.6,738.1,408.7,738.1z"/>
	<path class="st3" d="M409.8,984.1c-68.3,0-123.9-55.6-123.9-123.9s55.6-123.9,123.9-123.9s123.9,55.6,123.9,123.9
		S478.2,984.1,409.8,984.1z M409.8,741.2c-65.6,0-118.9,53.4-118.9,118.9c0,65.6,53.4,118.9,118.9,118.9
		c65.6,0,118.9-53.4,118.9-118.9S475.4,741.2,409.8,741.2z"/>
	<path class="st2" d="M883.3,859.3c0-0.8,0-1.6-0.1-2.4l102.5-17.2l-0.5-3.2l-102.5,17.2c-1.2-5.2-4.2-9.8-8.3-13.1l62.2-88.8
		l-2.7-1.9l-59.7,85.2l32.2-96.5l-3.1-1l-33.4,100.2c-2.7-1.4-5.8-2.2-9-2.4v-107h-3.3v107c-1.9,0.1-3.7,0.5-5.4,1L819,743.9
		l-3.1,1.1l31.6,88.1L784,759.9l-2.5,2.1l66.2,76.3c-3.5,1.9-6.4,4.6-8.6,7.9l-3.7-0.6l-92.6-47l-1.5,2.9l83.2,42.2l-92.8-16
		l-0.6,3.2l103.2,17.7l2.7,1.4c-1.2,2.9-1.9,6-1.9,9.4c0,0.6,0,1.3,0.1,1.9L733,876.4l0.5,3.2l102.4-15.2c0.2,1,0.5,1.9,0.8,2.8
		l-93.5,40.2l1.3,3l93.5-40.2c0,0,0,0.1,0.1,0.1l-73.4,74l2.3,2.3l72.8-73.5c1.5,2.1,3.3,3.9,5.3,5.4l-53.9,84.7l2.7,1.7l53.8-84.7
		c0.5,0.3,1,0.5,1.4,0.7C835.6,916.3,811,981.2,810.4,983l3.1,1c0.5-1.6,22.2-58.8,38.6-102c2.2,0.7,4.6,1,7,1c0.4,0,0.8,0,1.2,0
		L852,986l3.2,0.3l8.6-103.4c1-0.2,2-0.5,3-0.8c16.9,41.6,39.1,96.3,39.7,98.1l3.1-1c-0.6-1.8-25.8-63.9-39.8-98.3
		c0.3-0.1,0.6-0.3,0.9-0.5l57.1,90.4l2.8-1.7l-57.2-90.4c2.3-1.7,4.2-3.7,5.8-6.1l84.8,58.8l1.9-2.7l-85.1-59
		C882.4,866.6,883.3,863,883.3,859.3z"/>
	<path class="st2" d="M859.3,1000c-77.6,0-140.7-63.1-140.7-140.7s63.1-140.7,140.7-140.7S1000,781.7,1000,859.3
		c0,24.9-6.6,49.3-19,70.7c-12.2,20.9-29.6,38.4-50.5,50.7C909,993.3,884.4,1000,859.3,1000z M859.3,738.1
		c-66.8,0-121.2,54.4-121.2,121.2s54.4,121.2,121.2,121.2c21.6,0,42.8-5.7,61.3-16.6c18-10.6,33-25.7,43.5-43.7
		c10.7-18.4,16.4-39.5,16.4-60.9C980.5,792.5,926.1,738.1,859.3,738.1z"/>
	<path class="st3" d="M860.4,984.1c-68.3,0-123.9-55.6-123.9-123.9s55.5-124,123.9-124c68.3,0,123.9,55.6,123.9,123.9
		S928.7,984.1,860.4,984.1z M860.4,741.2c-65.6,0-118.9,53.4-118.9,118.9c0,65.6,53.4,118.9,118.9,118.9
		c65.6,0,118.9-53.4,118.9-118.9C979.3,794.6,926,741.2,860.4,741.2z"/>
	<path class="st4" d="M575.5,843.1c7.9-5.7,11.2-18.3,11.2-18.3L562,832C562.1,832,567.6,848.8,575.5,843.1z"/>
	<path class="st2" d="M637.4,860.7c-0.7-1.9-2.3-3.4-4.3-4c-4.9-1.4-14.6-2.7-23.5-10.7c-5-4.5-24.1-16.6-24.1-16.6h-0.1
		c-0.4,0-2.4,0.6-11.1,8c-4.5,3.8-12.2-5.4-12.2-5.4s-1.4,1.2-2.5,3.4c-0.9,1.8-1.5,4.2-1,7.1c0.7,4.2-1.5,11.9-3.3,17.2
		c-1.1,3.2-2,5.4-2,5.4s-0.5,2.6,8.9,3.8H573c3.7-0.6,6.4-1.6,10.1-2.1c5.7-0.7,8.3,1.6,8.8,2.1c0.1,0.1,0.1,0.1,0.1,0.1h46.4
		C639.6,867.4,638.5,863.5,637.4,860.7z"/>
	<path class="st2" d="M515.4,615c17.2,33,90,76.9,86.6,80.9C577.7,724.3,562.1,832,562.1,832s4.9,2.8,9.4,2.9
		c7.7,0.2,15.5-2.4,15.5-2.4c30.2-61.6,77.7-128.8,73.6-143.6C650,651.1,570,550.3,570,550.3l-71.6-15.8l-21.7-0.7
		C476.7,533.7,491.9,570,515.4,615z"/>
	
		<rect x="548" y="613.7" transform="matrix(0.9525 -0.3045 0.3045 0.9525 -201.8424 204.6704)" class="st5" width="14.6" height="271.5"/>
	<path class="st6" d="M748,623l1.4-2.9l-2.6,1.7l0,0v0.1l-339,229.2c-6.8,4.6-4,15.2,4.1,15.9l170.7,14.8l1.3-14.6l-154-13.4
		l286.7-183.5L596.7,862.4l12.3,7.9l155.4-230.4L748,623z"/>
	<path class="st3" d="M850.6,855.6l-84.4-181.7l11.2-4.5c7.3-2.9,15.5,0.6,18.4,7.9l68.6,172.3c1.5,3.8-0.3,8.2-4.1,9.8l0,0
		C856.5,860.9,852.3,859.2,850.6,855.6z"/>
	<path class="st6" d="M766.2,673.9c-12.1-31.4-32.3-80.7-32-80.3l12.2-8.1c0.6,0.9,1,1.5,32.7,83.8L766.2,673.9z"/>
	<path class="st3" d="M765.4,576.2c-5.5,0-10.1,3.5-11.8,8.3l-34.7-2c-2-4.4-6.4-7.4-11.5-7.4c-7,0-12.6,5.6-12.6,12.6
		s5.6,12.6,12.6,12.6c3.2,0,6.2-1.2,8.4-3.2l43,2.5c1.9,1.2,4.2,1.9,6.6,1.9c7,0,12.6-5.6,12.6-12.6S772.3,576.2,765.4,576.2z"/>
	<path class="st3" d="M673.3,902.7h-31.7c-3.7,0-6.8,3.1-6.8,6.8l0,0c0,3.7,3,6.8,6.8,6.8h31.7c3.7,0,6.8-3,6.8-6.8l0,0
		C680.1,905.7,677.1,902.7,673.3,902.7z"/>
	
		<rect x="624" y="855.4" transform="matrix(0.4147 -0.91 0.91 0.4147 -443.6273 1091.7689)" class="st3" width="5.7" height="70.6"/>
	<path class="st6" d="M523.4,714.9c-2.1,0.7-4.3,0.5-6.2-0.6l0,0c-65.8-39.8-156.9-24.8-183.3-19.3l0,0c-1.5,0.3-2.8-0.8-2.8-2.3
		v-5.1c0-3.9,2.9-7.3,6.8-7.9c14.3-2.1,47.6-6.7,66.2-6.8c0.5,0,1,0,1.5,0c41.7,0,77.7,7.5,107.2,22.2c6,3,13,3.4,19.4,1.2l8.1-2.9
		c4.6-1.6,9.7,0.8,11.3,5.4l0,0c1.1,3-0.5,6.3-3.5,7.3L523.4,714.9z"/>
	<path class="st3" d="M462.2,614.7c0,0-2.6-12,4.9-12.8s35,5.1,42.3,4.3c7.3-0.8,45.5-7.1,52.3-0.6c6.7,6.5,3.9,12.2-9.6,13.4
		c-13.4,1.2-31.3,3.5-36.4,7.7C510.6,631,473.8,643.6,462.2,614.7z"/>
	<path class="st3" d="M560,878.8c0-20.2,16.4-36.6,36.6-36.6s36.6,16.4,36.6,36.6s-16.4,36.6-36.6,36.6S560,899,560,878.8z"/>
	<path class="st4" d="M657.3,867.7c0,0,3.7,13.3,11.4,12.3s11.9-14.9,11.9-14.9L657.3,867.7z"/>
	<path class="st2" d="M657.3,904.6h10.9c3.7-0.6,6.4-1.6,10.1-2.1c5.7-0.7,8.3,1.6,8.8,2.1c0.1,0.1,0.1,0.1,0.1,0.1h46.4
		c1.2-1.7,0-5.5-1.1-8.4c-0.7-1.9-2.3-3.4-4.3-4c-4.9-1.4-14.6-2.7-23.5-10.7c-5-4.5-24.1-16.6-24.1-16.6h-0.1
		c-0.4,0-2.4,0.6-11.1,8c-4.5,3.8-12.2-5.4-12.2-5.4s-1.4,1.2-2.5,3.4c-0.9,1.7-1.5,4.2-1,7.1c0.7,4.2-1.5,11.9-3.3,17.2
		c-1.1,3.2-2,5.4-2,5.4S647.9,903.4,657.3,904.6z"/>
	<path class="st7" d="M480.1,516.5c0,0-28.7,62.3,6,90.7s135.7,68.7,137.3,75c1.6,6.3,8.5,109.8,33.8,185.6c0,0,8.7,3.5,23.3-2.6
		c8.2-3.4,19.1-199.9,4.9-218.9c-14.2-18.9-93.4-73.1-93.4-73.1L480.1,516.5z"/>
	<path class="st8" d="M572.3,307.1c0,0,35,33.5,61.3,33.5c0,0-3.5-9.4-12-18.3c1.7-3.3,3.2-6.3,4.4-9.1c4.6-9.8,6.5-15.7,6.5-15.7
		L613.6,269l-4.2-6.4c-1.4,4.9-3.1,9.3-5,13.3c-0.2,0.3-0.3,0.6-0.5,0.9C592,300.2,572.3,307.1,572.3,307.1z"/>
	<path class="st9" d="M743,563.2c0,0-50-64.1-54.5-69.7c-4.4-5.7-48.7-101.1-48.7-101.1l-67.4-5.9c0,0,72.6,117.9,84.1,132
		c19,23.3,72.8,51.9,72.8,51.9c-1,6.1,3.9,12.2,11.6,14.9c7.7,2.6,5.1,2.7,10.5,4.7s7.3-6.2,7.3-6.2
		C761.8,563.9,743,563.2,743,563.2z"/>
	<path class="st5" d="M480.1,516.5c-1,2.6,3.6,7.2,5.6,9c9,8,17.8,15,27.3,21c6.6,4.2,13.5,7.9,20.9,11
		c21.5,9.3,49.2,12.6,58.2,15.6c1,0.3,1.9,0.2,2.8-0.2c0.8-0.3,9.8-27.2,20.1-61.5c0.4-1.3,0.9-2.8,1.2-4.1l0.2-0.5
		c4.1-13.3,8-27.5,11.8-41.6c8.4-31.1,15.4-61.5,16.5-79.2c1.3-20.8-5.7-37-12.8-49.5l-6-9.9c-8.8-0.9-17.4-4.2-24.8-11.3
		c-8-7.7-16.7-16-18.8-15.3c-24.3,8.5-47.8,48.8-63.2,98.1c-0.5,1.6-1,3.1-1.4,4.7c-1.5,5.1-3,10.3-4.3,15.6
		c-9.4,37.1-21.6,67.9-28.6,85.9C482.7,509.5,481.1,513.6,480.1,516.5z"/>
	<path class="st6" d="M480.1,516.5c-1,2.6,3.6,7.2,5.6,9c9,8,17.8,15,27.3,21c57.8-83.3,51.9-183.7,51.9-183.7l-47.2,40.1
		c-1.5,5.1-3,10.3-4.3,15.6c-9.4,37.1-21.6,67.9-28.6,85.9C482.7,509.5,481.1,513.6,480.1,516.5z"/>
	<path class="st9" d="M603.8,276.5c0,0,0,0.2,0.1,0.4c0.7,3.4,5.8,25.3,22.2,36.4c4.6-9.8,6.5-15.7,6.5-15.7l-18.9-28.5
		c-4.6,2.9-8,5.7-9.3,6.9C604,276.3,603.8,276.5,603.8,276.5z"/>
	<path class="st8" d="M643.8,298.4c0,0-42,1.3-42.4-24.9s-6.1-43.6,20.7-45.6c26.8-1.9,32.2,8,34.4,16.7
		C658.8,253.3,654.7,297.4,643.8,298.4z"/>
	<path class="st2" d="M601.4,275.3c0,0,5.4-34.3,43.6-34.8c26.2-0.3,13.5-23.9,11-27.6c0,0-20.1,1.1-40.8,2.8
		C572,219.4,597.7,269.6,601.4,275.3z"/>
	<path class="st8" d="M706.2,565.8c0,0-50-64.1-54.5-69.7C647.3,490.4,603,395,603,395l-31.8-6.8l-28.9,11.9
		c0,0,65.9,106.9,77.3,121c19,23.3,72.8,51.9,72.8,51.9c-1,6.1,3.9,12.2,11.6,14.9c7.7,2.6,5.1,2.7,10.5,4.7s7.3-6.2,7.3-6.2
		C725,566.5,706.2,565.8,706.2,565.8z"/>
	<path class="st5" d="M608.1,395c0,0-45.7-6.7-67.7,7.5c0,0-5-28.6-1.1-52.6c2.2-13.2,14.8-22.2,28-19.8c8.8,1.6,18.1,5,22.4,12.1
		C599.3,357.8,608.1,395,608.1,395z"/>
	<path class="st5" d="M581,261.6l83.9-21.3c0,0-1.6-38.7-32-41.5C602.4,195.9,568.8,235,581,261.6z"/>
	<path class="st6" d="M642.4,235.2c-2.3,3.7-5.4,5.9-6.9,5s-0.7-4.7,1.6-8.3c2.3-3.7,5.4-5.9,6.9-5
		C645.5,227.8,644.8,231.5,642.4,235.2z"/>
	<path class="st6" d="M627.6,238.6c-2.3,3.7-5.4,5.9-6.9,5c-1.4-0.9-0.7-4.7,1.6-8.3c2.3-3.7,5.4-5.9,6.9-5
		C630.7,231.2,629.9,235,627.6,238.6z"/>
	<path class="st6" d="M612.6,241.8c-2.3,3.7-5.4,5.9-6.9,5c-1.4-0.9-0.7-4.7,1.6-8.3c2.3-3.7,5.4-5.9,6.9-5
		C615.7,234.4,614.9,238.1,612.6,241.8z"/>
	<path class="st6" d="M596.7,246.4c-2.3,3.7-5.4,5.9-6.9,5c-1.4-0.9-0.7-4.7,1.6-8.3c2.3-3.7,5.4-5.9,6.9-5
		C599.8,239,599,242.8,596.7,246.4z"/>
	<path class="st6" d="M625.9,211.3c26.7-2,33.1,30.4,33.1,30.4l0,0l5.8-1.5c0,0-1.6-38.7-32-41.5s-64,36.3-51.9,62.8
		C575.3,232.8,599.2,213.4,625.9,211.3z"/>
	<path class="st0" d="M560.4,311l-5.1,11.4c0,0,57.1,16.9,51.2,80.2l4.5,9.7C611,412.2,624.1,327.1,560.4,311z"/>
	<path class="st10" d="M578.1,457.6c0,0-56.1,35.5-85.7,27l-5.4,14c0,0,57.3-4.7,93.7-37L578.1,457.6z"/>
</g>
</svg>
