<?xml version="1.0" encoding="utf-8"?>
<!-- Generator: Adobe Illustrator 26.5.0, SVG Export Plug-In . SVG Version: 6.00 Build 0)  -->
<svg version="1.1" id="Ebene_1" xmlns="http://www.w3.org/2000/svg" xmlns:xlink="http://www.w3.org/1999/xlink" x="0px" y="0px"
	 viewBox="0 0 404.8 350" style="enable-background:new 0 0 404.8 350;" xml:space="preserve">
<style type="text/css">
	.st0{fill:#FF69B4;}
</style>
<g>
	<path class="st0" d="M217.9,138.8c18.2,0,33-14.8,33-33c0-18.2-14.8-33-33-33s-33,14.8-33,33C184.9,124,199.7,138.8,217.9,138.8z
		 M217.9,84.5c11.7,0,21.2,9.5,21.2,21.2c0,11.7-9.5,21.2-21.2,21.2c-11.7,0-21.2-9.5-21.2-21.2C196.7,94,206.2,84.5,217.9,84.5z"/>
	<path class="st0" d="M133.2,163c0.9,0.5,1.9,0.7,2.9,0.7c2.1,0,4.1-1.1,5.2-3c1.6-2.9,0.6-6.4-2.3-8c-6.8-3.7-11-10.9-11-18.6
		c0-7.7,4.2-14.8,11-18.6c2.8-1.6,3.9-5.2,2.3-8c-1.6-2.9-5.2-3.9-8-2.3c-10.5,5.8-17.1,16.9-17.1,28.9
		C116.2,146.1,122.7,157.2,133.2,163z"/>
	<path class="st0" d="M390.2,193.6c-1.2-0.2-2.4-0.4-3.7-0.4H250.4c0.3-1.9,0.5-3.9,0.5-5.8c0-6.9-2.1-13.3-5.8-18.6
		c0.5,0,1.1-0.1,1.6-0.1c7.7,0,14.8,4.2,18.6,11c1.1,1.9,3.1,3,5.2,3c1,0,2-0.2,2.9-0.7c2.8-1.6,3.9-5.2,2.3-8
		c-5.8-10.5-16.9-17.1-28.9-17.1c-4.1,0-8.1,0.8-11.8,2.2c-5-3-10.8-4.8-17.1-4.8c-18.2,0-33,14.8-33,33c0,2,0.2,3.9,0.5,5.8H89.6
		v-3.5c0-12.4-10.1-22.5-22.5-22.5H29.7c-12.4,0-22.5,10.1-22.5,22.5v5.7c-1.3,0.8-2.4,1.7-3.5,2.9c-2.8,3.2-4.2,7.5-3.6,11.8
		C3.3,235,17,257.8,39.8,276.3c0.1,0.1,0.3,0.3,0.5,0.4c0.2,0.1,0.4,0.3,0.5,0.4c27,19.6,81.7,37.2,115.9,37.2
		c39.1,0,76.6-10.5,105.5-29.6c29.3-19.3,47.4-45.8,51.1-74.5c0.2-1.7,0.1-3.4-0.2-5.1h33v12.8h-13c-3.3,0-5.9,2.6-5.9,5.9
		c0,3.3,2.6,5.9,5.9,5.9h53.4c10,0,18.2-8.2,18.2-18.2C404.8,202.7,398.5,195.4,390.2,193.6z M217.9,166.2c1.8,0,3.6,0.2,5.3,0.7
		c-2.1,2.1-3.8,4.5-5.3,7.1c-1.6,2.9-0.5,6.4,2.3,8c2.9,1.6,6.4,0.5,8-2.3c1.4-2.5,3.3-4.7,5.5-6.4c3.4,3.8,5.4,8.7,5.4,14.2
		c0,2-0.3,4-0.8,5.8h-40.8c-0.5-1.9-0.8-3.8-0.8-5.8C196.7,175.7,206.2,166.2,217.9,166.2z M19,189.8c0-5.9,4.8-10.7,10.7-10.7h37.4
		c5.9,0,10.7,4.8,10.7,10.7v3.5H19V189.8z M301.7,208.7c-3.3,25.2-19.6,48.7-45.9,66.1c-27,17.9-62.2,27.7-99,27.7
		c-32.5,0-82.9-17-109-35c-20.7-16.6-33.1-36.9-35.9-58.8c-0.2-1.2,0.4-2.1,0.8-2.5c0.4-0.4,1.1-1.1,2.4-1.1h283.6
		c1.2,0,2,0.7,2.4,1.1C301.3,206.6,301.9,207.4,301.7,208.7z M393,212.2c-0.3,3.2-3.1,5.8-6.4,5.8H358v-12.8h28.6
		c3.3,0,6,2.5,6.4,5.8c0,0.2,0,0.4,0,0.7C393,211.7,393,211.9,393,212.2z"/>
	<path class="st0" d="M152.8,47.5c11.7,0,21.2,9.5,21.2,21.2c0,3.3,2.6,5.9,5.9,5.9c3.3,0,5.9-2.6,5.9-5.9c0-18.2-14.8-33-33-33
		c-3.3,0-5.9,2.6-5.9,5.9C146.9,44.9,149.6,47.5,152.8,47.5z"/>
</g>
</svg>
