<?xml version="1.0" encoding="utf-8"?>
<!-- Generator: Adobe Illustrator 26.5.0, SVG Export Plug-In . SVG Version: 6.00 Build 0)  -->
<svg version="1.1" id="Ebene_1" xmlns="http://www.w3.org/2000/svg" xmlns:xlink="http://www.w3.org/1999/xlink" x="0px" y="0px"
	 viewBox="0 0 404.8 350" style="enable-background:new 0 0 404.8 350;" xml:space="preserve">
<style type="text/css">
	.st0{fill:#FF69B4;}
</style>
<path class="st0" d="M404.5,248.6c-5.1-23.2-20.5-42.4-41.8-52.4c5.1-17.8,2-37.5-9.4-53l-19.4-26.5c-0.2-0.8-0.5-1.6-1-2.3
	L300.3,71h8.7c11.8,0,21.4-9.6,21.4-21.4c0-11.8-9.6-21.4-21.4-21.4h-42.7c-6.3,0-11.4,5.1-11.4,11.4v4h-37.6
	c-3.3,0-5.9,2.6-5.9,5.9c0,3.3,2.6,5.9,5.9,5.9h37.6v2.1c-8.6,7.8-11.8,20.3-7.6,31.3l18,48.2c3.1,8.2,4.6,16.8,4.6,25.5v35.6
	c0,6.6-5.4,12-12,12h-48.3c-6.6,0-12-5.4-12-12v-28.7c0-16.2-12.8-29.5-28.8-30.3c0.8-2.1,1.3-4.4,1.3-6.7V46.7
	c0-10.2-8.3-18.5-18.5-18.5H29.2c0,0,0,0-0.1,0H18.5C8.3,28.2,0,36.5,0,46.7v85.7c0,10.2,8.3,18.5,18.5,18.5h35.7v52.9
	c-1,0.7-1.9,1.5-2.9,2.2C38,216.8,28.7,232,25.1,248.6c-0.9,4.2,0.1,8.5,2.8,11.9c2.7,3.3,6.7,5.2,11,5.2h7.9
	c-0.1,1.2-0.1,2.4-0.1,3.6c0,28.9,23.5,52.5,52.5,52.5c28.9,0,52.5-23.5,52.5-52.5c0-1.2-0.1-2.4-0.1-3.6h7.9c4.3,0,8.3-1.9,11-5.2
	c2.7-3.3,3.7-7.7,2.8-11.9c-0.2-0.7-0.3-1.4-0.5-2.1h84.3c-0.2,0.7-0.3,1.4-0.5,2.1c-0.9,4.2,0.1,8.5,2.8,11.9
	c2.7,3.3,6.7,5.2,11,5.2h7.9c-0.1,1.2-0.1,2.4-0.1,3.6c0,28.9,23.5,52.5,52.5,52.5c28.9,0,52.5-23.5,52.5-52.5
	c0-1.2-0.1-2.4-0.1-3.6h7.9c4.3,0,8.3-1.9,11-5.2C404.4,257.1,405.4,252.8,404.5,248.6z M266.7,40H309c5.3,0,9.6,4.3,9.6,9.6
	c0,5.3-4.3,9.6-9.6,9.6h-42.3V40z M18.5,139.1c-3.7,0-6.7-3-6.7-6.7V46.7c0-3.7,3-6.7,6.7-6.7h6.3c0,0,0,0,0.1,0h126.7
	c3.7,0,6.7,3,6.7,6.7v85.7c0,3.7-3,6.7-6.7,6.7H18.5z M99.1,310c-22.4,0-40.7-18.2-40.7-40.7c0-1.2,0.1-2.4,0.2-3.6h16.2
	c-0.2,1.2-0.3,2.4-0.3,3.6c0,13.5,11,24.6,24.6,24.6c13.5,0,24.6-11,24.6-24.6c0-1.2-0.1-2.4-0.3-3.6h16.2c0.1,1.2,0.2,2.4,0.2,3.6
	C139.8,291.7,121.6,310,99.1,310z M86.4,269.3c0-1.2,0.2-2.4,0.5-3.6h24.5c0.3,1.2,0.5,2.4,0.5,3.6c0,7-5.7,12.7-12.7,12.7
	S86.4,276.4,86.4,269.3z M161.1,253.1c-0.3,0.3-0.8,0.8-1.8,0.8H38.9c-0.9,0-1.5-0.5-1.8-0.8c-0.3-0.3-0.7-1-0.5-2
	c6.3-29.1,32.6-50.3,62.5-50.3c8.9,0,17.5,1.8,25.5,5.3c16.7,8.3,34.2,32.5,36.9,45C161.8,252.1,161.4,252.7,161.1,253.1z
	 M168.7,234.7c-4-9.2-20.2-29.5-38.6-39c-0.2-0.1-0.4-0.2-0.7-0.4c-0.2-0.1-0.4-0.2-0.5-0.2c-9.4-4-19.4-6.1-29.8-6.1
	c-11.5,0-22.9,2.7-33.1,7.7v-45.7h101.3c10.2,0,18.5,8.3,18.5,18.5v28.7c0,13.1,10.7,23.8,23.8,23.8H258c13.1,0,23.8-10.7,23.8-23.8
	v-35.6c0-10.2-1.8-20.1-5.4-29.7l-18-48.2c-2-5.2-1.1-11,1.9-15.4c1.8,1.1,3.8,1.8,6.1,1.8h19.3l33.1,44.2c0.2,0.8,0.5,1.5,1,2.2
	l24,32.7c13,17.7,12.6,42.1-0.9,59.4l-13,16.6c-4.2,5.3-10.4,8.4-17.2,8.4H168.7z M330.5,310c-22.4,0-40.7-18.2-40.7-40.7
	c0-1.2,0.1-2.4,0.2-3.6h16.2c-0.2,1.2-0.3,2.4-0.3,3.6c0,13.5,11,24.6,24.6,24.6c13.5,0,24.6-11,24.6-24.6c0-1.2-0.1-2.4-0.3-3.6
	H371c0.1,1.2,0.2,2.4,0.2,3.6C371.1,291.7,352.9,310,330.5,310z M317.7,269.3c0-1.2,0.2-2.4,0.5-3.6h24.5c0.3,1.2,0.5,2.4,0.5,3.6
	c0,7-5.7,12.7-12.7,12.7S317.7,276.3,317.7,269.3z M392.5,253.1c-0.3,0.3-0.8,0.8-1.8,0.8H270.2c-0.9,0-1.5-0.5-1.8-0.8
	c-0.3-0.3-0.7-1-0.5-2c0.3-1.6,0.7-3.1,1.2-4.6h43.5c10.4,0,20.1-4.7,26.5-12.9l13-16.6c2.4-3.1,4.4-6.3,6.1-9.7
	c17.6,8.5,30.4,24.6,34.6,43.9C393.1,252.1,392.7,252.7,392.5,253.1z"/>
</svg>
