<?xml version="1.0" encoding="utf-8"?>
<!-- Generator: Adobe Illustrator 27.0.0, SVG Export Plug-In . SVG Version: 6.00 Build 0)  -->
<svg version="1.0" id="Ebene_1" xmlns="http://www.w3.org/2000/svg" xmlns:xlink="http://www.w3.org/1999/xlink" x="0px" y="0px"
	 viewBox="0 0 1233.6 505.3" enable-background="new 0 0 1233.6 505.3" xml:space="preserve">
<g>
	<polygon fill="#FF69B4" points="1233.6,505.3 1173.6,505.3 1173.6,465.3 1193.6,465.3 1193.6,445.3 1233.6,445.3 	"/>
	<path fill="#FF69B4" d="M1117,505.3h-75.5v-40h75.5V505.3z M984.9,505.3h-75.5v-40h75.5V505.3z M852.7,505.3h-75.5v-40h75.5V505.3z
		 M720.6,505.3h-75.5v-40h75.5V505.3z M588.5,505.3H513v-40h75.5V505.3z M456.4,505.3h-75.5v-40h75.5V505.3z M324.2,505.3h-75.5v-40
		h75.5V505.3z M192.1,505.3h-75.5v-40h75.5V505.3z"/>
	<polygon fill="#FF69B4" points="60,505.3 0,505.3 0,445.3 40,445.3 40,465.3 60,465.3 	"/>
	<path fill="#FF69B4" d="M40,377.3H0v-90.6h40V377.3z M40,218.6H0V128h40V218.6z"/>
	<polygon fill="#FF69B4" points="40,60 0,60 0,0 60,0 60,40 40,40 	"/>
	<path fill="#FF69B4" d="M1117,40h-75.5V0h75.5V40z M984.9,40h-75.5V0h75.5V40z M852.7,40h-75.5V0h75.5V40z M720.6,40h-75.5V0h75.5
		V40z M588.5,40H513V0h75.5V40z M456.4,40h-75.5V0h75.5V40z M324.2,40h-75.5V0h75.5V40z M192.1,40h-75.5V0h75.5V40z"/>
	<polygon fill="#FF69B4" points="1233.6,60 1193.6,60 1193.6,40 1173.6,40 1173.6,0 1233.6,0 	"/>
	<path fill="#FF69B4" d="M1233.6,377.3h-40v-90.6h40V377.3z M1233.6,218.6h-40V128h40V218.6z"/>
</g>
<g>
	<path fill="#FF69B4" d="M233.9,171.9h34.7v161.9h-34.7v-69.4h-57.4v69.4h-34.7V171.9h34.7v57.8h57.4V171.9z"/>
	<path fill="#FF69B4" d="M373.9,336.9c-10.6,0-20.3-2.7-29.1-8.2c-8.8-5.5-15.7-12.8-20.9-22c-5.2-9.2-7.8-19.4-7.8-30.6
		c0-8.5,1.5-16.4,4.5-23.8c3-7.4,7.2-13.8,12.4-19.4c5.3-5.6,11.4-10,18.4-13.1c7-3.2,14.5-4.7,22.4-4.7c10.6,0,20.3,2.7,29.1,8.2
		c8.8,5.5,15.7,12.8,20.9,22.1c5.2,9.3,7.8,19.5,7.8,30.8c0,8.4-1.5,16.3-4.5,23.6c-3,7.3-7.2,13.8-12.4,19.4
		c-5.3,5.6-11.4,10-18.4,13.1C389.4,335.3,381.9,336.9,373.9,336.9z M373.9,302.2c4.4,0,8.3-1.2,11.9-3.6c3.5-2.4,6.3-5.6,8.3-9.5
		c2-4,3-8.3,3-13c0-4.9-1.1-9.3-3.2-13.3c-2.1-4-4.9-7.2-8.4-9.5c-3.5-2.4-7.3-3.5-11.5-3.5c-4.3,0-8.2,1.2-11.7,3.6
		c-3.5,2.4-6.3,5.7-8.3,9.7c-2,4-3.1,8.4-3.1,13.1c0,4.9,1.1,9.4,3.2,13.3c2.1,3.9,4.9,7.1,8.4,9.4
		C365.9,301,369.8,302.2,373.9,302.2z"/>
	<path fill="#FF69B4" d="M538.1,252.9h-19.7v81h-34.7v-81h-15v-34.7h15v-36.3h34.7v36.3h19.7V252.9z"/>
	<path fill="#FF69B4" d="M585.1,333.9V171.9h61.1c8.9,0,16.9,2.3,24.1,6.8c7.2,4.5,12.9,10.5,17.2,18c4.2,7.5,6.4,15.8,6.4,24.7
		c0,9.1-2.2,17.4-6.5,24.9c-4.4,7.5-10.2,13.5-17.4,17.9c-7.3,4.5-15.2,6.7-23.7,6.7h-26.4v62.9H585.1z M619.8,236.3h22.4
		c3.1,0,5.9-0.8,8.4-2.4c2.5-1.6,4.6-3.7,6.1-6.3c1.5-2.6,2.3-5.5,2.3-8.7c0-3.2-0.8-6.1-2.3-8.7c-1.5-2.6-3.6-4.7-6.1-6.3
		c-2.5-1.6-5.4-2.4-8.4-2.4h-22.4V236.3z"/>
	<path fill="#FF69B4" d="M754.6,206.2c-5,0-9.2-1.7-12.6-5c-3.4-3.3-5.1-7.4-5.1-12.4c0-4.9,1.7-9,5.1-12.3c3.4-3.4,7.6-5,12.5-5
		c4.9,0,9,1.7,12.3,5c3.4,3.4,5,7.5,5,12.3c0,4.9-1.6,9.1-4.9,12.4C763.7,204.5,759.6,206.2,754.6,206.2z M737,218.2h34.7v115.7H737
		V218.2z"/>
	<path fill="#FF69B4" d="M931.9,260v73.9h-34.7v-64.2c0-3.6-0.9-6.9-2.7-9.9c-1.8-3-4.1-5.3-7.1-7.1c-2.9-1.7-6.2-2.6-9.8-2.6
		c-3.6,0-6.9,0.9-9.9,2.6c-3,1.7-5.3,4.1-7.1,7.1c-1.7,3-2.6,6.3-2.6,9.9v64.2h-34.7l-0.1-115.7H858l0.1,7.3
		c3.9-3.3,8.3-5.9,13.2-7.8c4.9-1.9,10.1-2.8,15.6-2.8c8.3,0,15.9,2,22.7,6.1c6.8,4,12.2,9.5,16.3,16.3
		C929.9,244.1,931.9,251.6,931.9,260z"/>
	<path fill="#FF69B4" d="M1091.4,333.9h-40l-23.1-39.8l-12.5,14.8v25H981V160.4h34.7V255l30.8-36.8h45.3l-39.8,47.7L1091.4,333.9z"
		/>
</g>
</svg>
