<?xml version="1.0" encoding="utf-8"?>
<!-- Generator: Adobe Illustrator 26.5.0, SVG Export Plug-In . SVG Version: 6.00 Build 0)  -->
<svg version="1.1" id="Ebene_1" xmlns="http://www.w3.org/2000/svg" xmlns:xlink="http://www.w3.org/1999/xlink" x="0px" y="0px"
	 viewBox="0 0 342.1 342.1" style="enable-background:new 0 0 342.1 342.1;" xml:space="preserve">
<style type="text/css">
	.st0{fill:#FF69B4;}
</style>
<g>
	<g>
		<path class="st0" d="M171,30.8c45.7,0,51.1,0.2,69.1,1c16.7,0.8,25.7,3.5,31.8,5.9c8,3.1,13.7,6.8,19.7,12.8
			c6,6,9.7,11.7,12.8,19.7c2.3,6,5.1,15.1,5.9,31.8c0.8,18,1,23.4,1,69.1s-0.2,51.1-1,69.1c-0.8,16.7-3.5,25.7-5.9,31.8
			c-3.1,8-6.8,13.7-12.8,19.7c-6,6-11.7,9.7-19.7,12.8c-6,2.3-15.1,5.1-31.8,5.9c-18,0.8-23.4,1-69.1,1c-45.7,0-51.1-0.2-69.1-1
			c-16.7-0.8-25.7-3.5-31.8-5.9c-8-3.1-13.7-6.8-19.7-12.8c-6-6-9.7-11.7-12.8-19.7c-2.3-6-5.1-15.1-5.9-31.8c-0.8-18-1-23.4-1-69.1
			s0.2-51.1,1-69.1c0.8-16.7,3.5-25.7,5.9-31.8c3.1-8,6.8-13.7,12.8-19.7c6-6,11.7-9.7,19.7-12.8c6-2.3,15.1-5.1,31.8-5.9
			C120,31,125.4,30.8,171,30.8 M171,0c-46.5,0-52.3,0.2-70.5,1C82.3,1.9,69.9,4.8,59,9c-11.2,4.4-20.8,10.2-30.3,19.7
			C19.2,38.2,13.4,47.8,9,59c-4.2,10.9-7.1,23.3-8,41.5c-0.8,18.2-1,24.1-1,70.5c0,46.5,0.2,52.3,1,70.5c0.8,18.2,3.7,30.6,8,41.5
			c4.4,11.2,10.2,20.8,19.7,30.3c9.5,9.5,19,15.4,30.3,19.7c10.9,4.2,23.3,7.1,41.5,8c18.2,0.8,24.1,1,70.5,1
			c46.5,0,52.3-0.2,70.5-1c18.2-0.8,30.6-3.7,41.5-8c11.2-4.4,20.8-10.2,30.3-19.7c9.5-9.5,15.4-19,19.7-30.3
			c4.2-10.9,7.1-23.3,8-41.5c0.8-18.2,1-24.1,1-70.5s-0.2-52.3-1-70.5c-0.8-18.2-3.7-30.6-8-41.5c-4.4-11.2-10.2-20.8-19.7-30.3
			c-9.5-9.5-19-15.4-30.3-19.7c-10.9-4.2-23.3-7.1-41.5-8C223.3,0.2,217.5,0,171,0L171,0z"/>
		<path class="st0" d="M171,83.2c-48.5,0-87.8,39.3-87.8,87.8s39.3,87.8,87.8,87.8c48.5,0,87.8-39.3,87.8-87.8S219.5,83.2,171,83.2z
			 M171,228.1c-31.5,0-57-25.5-57-57s25.5-57,57-57s57,25.5,57,57S202.5,228.1,171,228.1z"/>
		<circle class="st0" cx="262.3" cy="79.7" r="20.5"/>
	</g>
</g>
</svg>
