<?xml version="1.0" encoding="utf-8"?>
<!-- Generator: Adobe Illustrator 26.5.0, SVG Export Plug-In . SVG Version: 6.00 Build 0)  -->
<svg version="1.1" id="Ebene_1" xmlns="http://www.w3.org/2000/svg" xmlns:xlink="http://www.w3.org/1999/xlink" x="0px" y="0px"
	 viewBox="0 0 289 345.9" style="enable-background:new 0 0 289 345.9;" xml:space="preserve">
<style type="text/css">
	.st0{fill:#FF69B4;}
</style>
<path class="st0" d="M283.9,62.4c-1-2.9-2.2-3.7-4.1-4.4c-4.1-1.6-11,0.8-11,0.8S23.5,147,9.5,156.7c-3,2.1-4,3.3-4.5,4.8
	c-2.4,7,5.1,10,5.1,10l63.2,20.6c0,0,2.4,0.3,3.2-0.2c14.4-9.1,144.7-91.4,152.2-94.2c1.2-0.4,2.1,0.1,1.8,0.9
	c-3,10.6-116.2,111.2-116.2,111.2s-0.4,0.5-0.7,1.2l-0.1-0.1l-5.9,62.7c0,0-2.5,19.2,16.7,0c13.6-13.6,26.7-24.9,33.2-30.4
	c21.7,15,45.1,31.6,55.2,40.3c5.1,4.4,9.3,5.1,12.8,4.9c9.6-0.4,12.3-10.9,12.3-10.9s44.7-179.9,46.2-204c0.1-2.4,0.3-3.9,0.4-5.5
	C284.5,65.8,284.3,63.5,283.9,62.4z"/>
</svg>
