<?xml version="1.0" encoding="utf-8"?>
<!-- Generator: Adobe Illustrator 26.5.0, SVG Export Plug-In . SVG Version: 6.00 Build 0)  -->
<svg version="1.1" id="Ebene_1" xmlns="http://www.w3.org/2000/svg" xmlns:xlink="http://www.w3.org/1999/xlink" x="0px" y="0px"
	 viewBox="0 0 289 289" style="enable-background:new 0 0 289 289;" xml:space="preserve">
<style type="text/css">
	.st0{fill:#FF69B4;}
</style>
<path class="st0" d="M92.6,0C41.5,0,0,41.5,0,92.6c0,51,41.5,92.6,92.6,92.6c16.3,0,31.6-4.2,45-11.7l21.2,21.2l-6,6
	c-3.3,3.2-3.3,8.8,0,12l64,64c8.3,8.3,19.1,12.4,29.9,12.4c10.8,0,21.7-4.1,29.9-12.4c16.5-16.5,16.5-43.4,0-59.9l-64-64
	c-3.3-3.3-8.7-3.3-12,0l-6,6l-21.2-21.2c7.4-13.3,11.7-28.7,11.7-45C185.2,41.5,143.6,0,92.6,0L92.6,0z M170.7,206.6l35.9-35.9
	l58,58c4.8,4.8,7.4,11.2,7.4,18c0,6.8-2.6,13.2-7.4,18c-9.9,9.9-26,9.9-35.9,0L170.7,206.6z M151.7,163.7c4.3-3.6,8.4-7.6,12-12
	l18.9,18.9l-12,12L151.7,163.7z M92.6,168.2c-41.7,0-75.6-33.9-75.6-75.6c0-41.7,33.9-75.6,75.6-75.6c41.7,0,75.6,33.9,75.6,75.6
	C168.2,134.3,134.3,168.2,92.6,168.2L92.6,168.2z M92.6,168.2"/>
</svg>
