<?xml version="1.0" encoding="utf-8"?>
<!-- Generator: Adobe Illustrator 26.5.0, SVG Export Plug-In . SVG Version: 6.00 Build 0)  -->
<svg version="1.1" id="Ebene_1" xmlns="http://www.w3.org/2000/svg" xmlns:xlink="http://www.w3.org/1999/xlink" x="0px" y="0px"
	 viewBox="0 0 289 345.9" style="enable-background:new 0 0 289 345.9;" xml:space="preserve">
<style type="text/css">
	.st0{fill:#FF69B4;}
</style>
<path class="st0" d="M282.8,91.4c0-1.4,0-1.5-1.5-1.5c-3.6,0-7.2-0.4-10.7-0.9c-12.9-1.9-54.8-23.9-61.9-59.9
	c-0.1-0.7-1.7-9.6-1.7-13.4c0-1.7,0-1.7-1.7-1.7c-0.4,0-0.8,0-1.2,0c-16.4,0-32.8,0-49.2,0c-3.3,0-2.8-0.4-2.8,2.9
	c0,71.1,0,142.2,0,213.2c0,2.7-0.1,5.3-0.5,7.9c-2.5,13.8-9.5,24.5-21.4,31.9c-10.3,6.4-21.5,8.2-33.4,5.8
	c-3.8-0.7-7.3-2.2-10.8-3.6c-0.3-0.3-0.6-0.5-0.9-0.8c-1.2-1-2.5-1.8-3.8-2.7c-15.3-10.4-22.5-25-20.3-43.2
	c2.2-18.5,12.9-31.1,30.4-37.5c5.2-1.9,10.7-2.7,16.3-2.4c3.6,0.2,7.2,0.7,10.7,1.6c1.2,0.3,1.9-0.1,1.9-1.4c0-0.5,0-0.9,0-1.4
	c0-12.8-0.5-40.6-0.5-40.7c0-3.7,0-7.3,0.1-11c0-1.1-0.5-1.2-1.4-1.3c-6.6-0.8-13.2-0.9-19.9-0.4c-9.2,0.7-18.1,2.6-26.7,5.7
	c-13.8,5-25.9,12.6-36.4,22.9c-9,8.8-16,19-21.2,30.4c-5,11-7.8,22.5-8.6,34.5c-0.3,5.2-0.3,10.4,0.2,15.6c0.7,7.2,2,14.3,4.2,21.2
	c6.3,19.8,17.8,36.1,34,48.9c1.7,1.3,3.2,2.7,5.2,3.6l0,0c0.8,0.7,1.7,1.5,2.5,2.2c2.6,2,5.4,3.7,8.4,5.1
	c18.2,9,37.4,12.7,57.6,10.2c26.2-3.2,48.1-14.8,65.3-34.9c16.2-18.9,24.1-41,24.2-65.7c0.2-35.4,0-70.8,0.1-106.2
	c0-0.8-0.5-2,0.4-2.5c0.7-0.3,1.5,0.6,2.1,1.1c13.2,8.7,27.4,14.9,42.8,18.4c9,2,18,3.3,27.2,3.3c2.9,0,3.3-0.1,3.3-3
	C283.5,129.1,282.8,94.7,282.8,91.4z"/>
</svg>
