<svg id="Capa_1" enable-background="new 0 0 512 512" height="512" viewBox="0 0 512 512" width="512" xmlns="http://www.w3.org/2000/svg"><g><path d="m382.4 0h-252.8c-15.952 0-28.93 12.978-28.93 28.93v454.14c0 15.952 12.978 28.93 28.93 28.93h252.8c15.952 0 28.93-12.978 28.93-28.93v-371.743c0-4.142-3.357-7.5-7.5-7.5s-7.5 3.358-7.5 7.5v322.883h-280.66v-382.92h280.66v24.816c0 4.142 3.357 7.5 7.5 7.5s7.5-3.358 7.5-7.5v-47.176c0-15.952-12.977-28.93-28.93-28.93zm13.93 449.21v33.86c0 7.681-6.249 13.93-13.93 13.93h-252.8c-7.681 0-13.93-6.249-13.93-13.93v-33.86zm-280.66-412.92v-7.36c0-7.681 6.249-13.93 13.93-13.93h252.8c7.681 0 13.93 6.249 13.93 13.93v7.36z"/><path d="m240.858 480.605h30.283c4.143 0 7.5-3.358 7.5-7.5s-3.357-7.5-7.5-7.5h-30.283c-4.142 0-7.5 3.358-7.5 7.5s3.358 7.5 7.5 7.5z"/><path d="m174.757 125.988c7.98 0 14.473-6.492 14.473-14.473v-27.036c0-7.98-6.492-14.472-14.473-14.472h-27.037c-7.98 0-14.473 6.492-14.473 14.472v27.037c0 7.98 6.492 14.473 14.473 14.473h27.037zm-26.51-40.982h25.982v25.982h-25.982z"/><path d="m280.77 102.678c4.143 0 7.5-3.358 7.5-7.5s-3.357-7.5-7.5-7.5h-64.889c-4.142 0-7.5 3.358-7.5 7.5s3.358 7.5 7.5 7.5z"/><path d="m378.753 351.395v-181.93c0-9.742-7.926-17.667-17.667-17.667h-210.171c-9.742 0-17.667 7.925-17.667 17.667v181.93c0 9.742 7.926 17.667 17.667 17.667h69.948c4.142 0 7.5-3.358 7.5-7.5v-74.785c11.504-5.907 18.529-18.127 17.524-31.432l-4.52-60c-.312-4.13-3.906-7.221-8.043-6.915-4.13.312-7.226 3.913-6.915 8.043l2.672 35.436h-15.025v-35.997c0-4.142-3.358-7.5-7.5-7.5s-7.5 3.358-7.5 7.5v35.997h-15.031l2.672-35.436c.311-4.13-2.785-7.731-6.915-8.043-4.139-.3-7.731 2.785-8.043 6.915l-4.52 60c-1.005 13.303 6.022 25.524 17.53 31.431v67.286h-33.836c-1.471 0-2.667-1.196-2.667-2.667v-181.93c0-1.471 1.197-2.667 2.667-2.667h210.171c1.471 0 2.667 1.196 2.667 2.667v181.93c0 1.471-1.196 2.667-2.667 2.667h-33.835v-67.653c11.632-5.973 18.524-17.861 17.529-31.059l-2.469-32.746c-1.445-19.173-17.639-34.192-36.866-34.192s-35.422 15.019-36.867 34.192l-2.468 32.745c-.995 13.198 5.896 25.086 17.528 31.059v67.653h-27.636c-4.142 0-7.5 3.358-7.5 7.5s3.358 7.5 7.5 7.5h105.086c9.741.001 17.667-7.924 17.667-17.666zm-184.269-76.786c-7.867-2.454-12.927-9.911-12.306-18.138l.719-9.562h47.315l.718 9.562v.002c.621 8.226-4.437 15.684-12.3 18.136-3.133.978-5.267 3.878-5.267 7.16v72.292h-13.613v-72.293c0-3.281-2.133-6.182-5.266-7.159zm104.155 79.453v-72.629c0-3.243-2.085-6.119-5.167-7.128-8.025-2.626-13.01-9.791-12.404-17.828l2.468-32.745c.859-11.395 10.483-20.32 21.91-20.32 11.426 0 21.05 8.925 21.909 20.32l2.469 32.746c.605 8.036-4.38 15.2-12.405 17.827-3.082 1.009-5.167 3.885-5.167 7.128v72.629z"/><path d="m140.747 385.435c-4.142 0-7.5 3.358-7.5 7.5s3.358 7.5 7.5 7.5h95.076c4.142 0 7.5-3.358 7.5-7.5s-3.358-7.5-7.5-7.5z"/><path d="m371.253 400.693c4.285 0 7.758-3.473 7.758-7.758s-3.473-7.758-7.758-7.758-7.758 3.473-7.758 7.758c0 4.284 3.473 7.758 7.758 7.758z"/><path d="m332.749 392.935c0 4.285 3.473 7.758 7.758 7.758s7.758-3.473 7.758-7.758-3.473-7.758-7.758-7.758-7.758 3.473-7.758 7.758z"/></g></svg>