<svg id="Capa_1" enable-background="new 0 0 512 512" height="512" viewBox="0 0 512 512" width="512" xmlns="http://www.w3.org/2000/svg"><g><path d="m467.352 385.386c0-13.675-9.625-25.132-22.452-27.977v-43.449c12.469-.532 22.452-10.83 22.452-23.428v-13.865c.126-13.348-12.036-24.533-25.773-23.462 2.119-3.965 3.325-8.489 3.325-13.29v-12.836c0-63.336-51.527-114.863-114.862-114.863h-66.572v-21.813l64.797-21.402c9.995-3.301 16.453-12.235 16.453-22.76 0-10.526-6.458-19.46-16.452-22.761l-69.946-23.102c-2.284-.755-4.795-.367-6.746 1.043s-3.106 3.671-3.106 6.078v104.716h-66.572c-63.336 0-114.863 51.527-114.863 114.863v12.836c0 4.801 1.206 9.325 3.325 13.29-13.129-1.184-25.823 9.637-25.773 23.462v13.865c0 12.597 9.983 22.895 22.452 23.428v43.449c-12.826 2.846-22.452 14.302-22.452 27.977 0 17.194 10.84 32.647 26.973 38.454 18.187 6.548 45.27 13.472 71.007 9.27 15.449-2.401 33.753-7.122 49.211-11.271 16.42-4.325 30.506-7.033 47.825-7.033 18.327 0 38.161 8.02 55.66 15.095 15.742 6.314 31.718 12.927 45.558 12.346 16.263-.842 26.336-9.98 34.43-17.322 6.39-5.796 10.554-9.357 15.413-9.528 3.104-.102 6.782 2.126 11.084 4.709 7.091 4.257 15.822 9.492 28.153 8.679v13.986c0 29.902-24.327 54.229-54.229 54.229h-239.404c-27.474 0-50.625-20.538-53.85-47.773-.487-4.113-4.213-7.051-8.33-6.565-4.113.487-7.053 4.216-6.565 8.33 4.118 34.781 33.672 61.009 68.745 61.009h239.402c38.173 0 69.229-31.056 69.229-69.229v-18.025c13.82-6.641 23.377-22.728 22.453-39.36zm-203.883-367.511 60.094 19.848c5.713 1.887 6.156 6.996 6.156 8.518 0 1.521-.443 6.63-6.157 8.517l-60.093 19.848zm-203.883 272.657v-13.865c0-4.666 3.796-8.462 8.462-8.462h267.112c4.143 0 7.5-3.358 7.5-7.5s-3.357-7.5-7.5-7.5h-239.836c-7.328 0-13.29-5.962-13.29-13.29v-12.836c0-55.065 44.798-99.863 99.863-99.863h148.144c55.064 0 99.862 44.798 99.862 99.863v12.836c0 7.328-5.962 13.29-13.29 13.29h-44.715c-4.143 0-7.5 3.358-7.5 7.5s3.357 7.5 7.5 7.5h71.991c4.666 0 8.462 3.796 8.462 8.462v13.865c0 4.666-3.796 8.462-8.462 8.462h-375.84c-4.666 0-8.463-3.796-8.463-8.462zm102.962 23.465h134.817l-51.893 45.922c-9.278 8.21-23.203 8.132-32.389-.182zm24.847 42.721h-100.123c-2.886 0-5.234-2.353-5.234-5.245v-32.232c0-2.892 2.348-5.245 5.234-5.245h52.923zm132.606-42.721h104.665c2.887 0 5.234 2.353 5.234 5.245v32.232c0 2.892-2.348 5.245-5.234 5.245h-152.942zm110.324 99.694c-8.408 1.022-14.458-2.604-20.858-6.447-5.809-3.487-11.796-7.084-19.321-6.839-10.602.373-17.908 7-24.974 13.41-7.306 6.627-14.206 12.887-25.13 13.453-9.994.512-24.157-5.208-39.156-11.272-18.767-7.588-40.038-16.189-61.283-16.189-16.562-.115-33.824 2.693-51.599 7.515-14.14 3.748-31.23 8.351-47.85 10.985-22.567 3.682-46.995-2.633-63.514-8.579-10.2-3.671-17.053-13.453-17.053-24.341 0-7.537 6.127-13.668 13.658-13.668h130.77c7.321 6.2 16.338 9.312 25.366 9.312 9.016 0 18.033-3.108 25.363-9.312h183.952c7.53 0 13.657 6.131 13.657 13.668 1.228 13.188-8.496 26.767-22.028 28.304z"/><ellipse cx="166.621" cy="172.38" rx="8.098" ry="8.098" transform="matrix(.383 -.924 .924 .383 -56.4 260.351)"/><ellipse cx="211.295" cy="159.568" rx="8.098" ry="8.098" transform="matrix(.383 -.924 .924 .383 -16.985 293.715)"/><circle cx="255.969" cy="172.38" r="8.098"/><circle cx="300.643" cy="159.568" r="8.098"/><circle cx="345.317" cy="172.38" r="8.098"/></g></svg>