<svg id="Capa_1" enable-background="new 0 0 511.99 511.99" height="512" viewBox="0 0 511.99 511.99" width="512" xmlns="http://www.w3.org/2000/svg"><g><path d="m77.938 77.938c-31.555 31.555-48.933 73.573-48.933 118.314s17.378 86.759 48.933 118.314 73.573 48.933 118.314 48.933 86.76-17.378 118.314-48.933c31.555-31.555 48.933-73.573 48.933-118.314s-17.378-86.759-48.933-118.314c-65.239-65.239-171.39-65.239-236.628 0zm226.021 226.021c-28.722 28.722-66.973 44.54-107.708 44.54s-78.986-15.818-107.708-44.54c-28.721-28.722-44.539-66.973-44.539-107.708s15.818-78.986 44.539-107.708c29.695-29.695 68.701-44.542 107.708-44.542s78.013 14.848 107.708 44.542c28.721 28.722 44.539 66.973 44.539 107.708s-15.817 78.986-44.539 107.708z"/><path d="m505.609 446.528-101.782-101.782c-4.122-4.122-9.601-6.391-15.43-6.391s-11.308 2.27-15.429 6.391l-8.808 8.808-23.944-23.944c31.795-34.295 50.247-78.547 52.128-125.445.166-4.139-3.055-7.629-7.193-7.795-4.131-.148-7.628 3.054-7.795 7.193-1.83 45.624-20.631 88.543-52.94 120.853-34.234 34.234-79.75 53.087-128.164 53.087-48.415 0-93.931-18.854-128.165-53.087s-53.087-79.75-53.087-128.164c0-48.415 18.854-93.931 53.087-128.165s79.75-53.087 128.165-53.087c48.414 0 93.93 18.854 128.164 53.087 27.789 27.789 45.48 62.968 51.162 101.734.601 4.098 4.414 6.936 8.508 6.333 4.099-.601 6.934-4.41 6.333-8.508-6.153-41.983-25.309-80.078-55.397-110.166-37.066-37.066-86.35-57.48-138.77-57.48-52.421 0-101.704 20.414-138.771 57.481s-57.481 86.35-57.481 138.771c0 52.42 20.414 101.704 57.481 138.771s86.35 57.481 138.771 57.481c49.912 0 96.971-18.519 133.358-52.287l23.944 23.944-8.808 8.808c-4.122 4.122-6.391 9.601-6.391 15.43s2.27 11.308 6.391 15.43l101.782 101.782c4.254 4.254 9.841 6.381 15.429 6.381 5.587 0 11.176-2.127 15.43-6.381l28.222-28.222c8.508-8.511 8.508-22.354 0-30.861zm-10.607 20.252-28.222 28.222c-2.659 2.66-6.986 2.661-9.646 0l-101.781-101.781c-1.288-1.289-1.998-3.001-1.998-4.823s.709-3.534 1.998-4.823l28.223-28.222c1.288-1.289 3-1.998 4.822-1.998s3.535.709 4.823 1.998l101.782 101.782c2.659 2.658 2.659 6.986-.001 9.645z"/><path d="m298.743 147.042c0-37.177-30.246-67.422-67.422-67.422h-70.138c-37.177 0-67.422 30.246-67.422 67.422v18.343c-10.25 1.969-18.02 11-18.02 21.815v18.058c0 10.815 7.77 19.846 18.02 21.815v31.447c0 22.789 18.54 41.328 41.328 41.328h122.327c22.789 0 41.328-18.54 41.328-41.328v-31.447c10.25-1.969 18.02-11 18.02-21.815v-18.058c0-10.815-7.77-19.846-18.02-21.815v-18.343zm-15 111.478c0 14.518-11.811 26.328-26.328 26.328h-122.327c-14.518 0-26.328-11.811-26.328-26.328v-23.359l34.587 26.472c4.845 3.708 10.65 5.562 16.456 5.562s11.611-1.854 16.456-5.562l44.628-34.157h62.855v31.044zm-160.344-31.043h72.809l-29.065 22.246c-4.321 3.307-10.356 3.307-14.678 0zm178.364-40.277v18.058c0 3.98-3.238 7.218-7.218 7.218h-196.586c-3.98 0-7.219-3.238-7.219-7.218v-18.058c0-3.98 3.238-7.218 7.219-7.218h39.432c4.142 0 7.5-3.358 7.5-7.5s-3.358-7.5-7.5-7.5h-28.631v-17.94c0-28.906 23.517-52.422 52.422-52.422h70.138c28.906 0 52.422 23.517 52.422 52.422v17.94h-111.047c-4.142 0-7.5 3.358-7.5 7.5s3.358 7.5 7.5 7.5h121.85c3.979 0 7.218 3.238 7.218 7.218z"/><path d="m157.099 122.043c-4.285 0-7.758 3.473-7.758 7.758s3.473 7.758 7.758 7.758 7.758-3.473 7.758-7.758-3.473-7.758-7.758-7.758z"/><ellipse cx="199.899" cy="117.526" rx="7.758" ry="7.758" transform="matrix(.987 -.16 .16 .987 -16.244 33.538)"/><path d="m242.699 137.559c4.285 0 7.758-3.473 7.758-7.758s-3.473-7.758-7.758-7.758-7.758 3.473-7.758 7.758 3.473 7.758 7.758 7.758z"/></g></svg>